<svg width="115" height="57" viewBox="0 0 115 57" fill="none" xmlns="http://www.w3.org/2000/svg">
<g filter="url(#filter0_d_87_1125)">
<path fill-rule="evenodd" clip-rule="evenodd" d="M55.0984 49.209C65.6821 49.209 74.87 43.9076 79.4717 36.135C82.8202 38.7352 87.3655 40.3332 92.3719 40.3332C102.665 40.3332 111.009 33.5783 111.009 25.2457C111.009 16.9131 102.665 10.1582 92.3719 10.1582C87.5395 10.1582 83.1367 11.647 79.8252 14.0889C75.3523 5.98041 65.9605 0.396484 55.0984 0.396484C42.9267 0.396484 32.6011 7.4081 28.9743 17.1265C27.1416 16.6388 25.1835 16.375 23.1492 16.375C12.856 16.375 4.51172 23.1299 4.51172 31.4625C4.51172 39.7951 12.856 46.55 23.1492 46.55C28.137 46.55 32.6671 44.9639 36.0119 42.3808C40.959 46.6089 47.6864 49.209 55.0984 49.209Z" fill="white"/>
</g>
<defs>
<filter id="filter0_d_87_1125" x="0.961718" y="0.396484" width="113.598" height="55.9125" filterUnits="userSpaceOnUse" color-interpolation-filters="sRGB">
<feFlood flood-opacity="0" result="BackgroundImageFix"/>
<feColorMatrix in="SourceAlpha" type="matrix" values="0 0 0 0 0 0 0 0 0 0 0 0 0 0 0 0 0 0 127 0" result="hardAlpha"/>
<feOffset dy="3.55"/>
<feGaussianBlur stdDeviation="1.775"/>
<feColorMatrix type="matrix" values="0 0 0 0 0 0 0 0 0 0 0 0 0 0 0 0 0 0 0.25 0"/>
<feBlend mode="normal" in2="BackgroundImageFix" result="effect1_dropShadow_87_1125"/>
<feBlend mode="normal" in="SourceGraphic" in2="effect1_dropShadow_87_1125" result="shape"/>
</filter>
</defs>
</svg>
