<svg width="1704" height="964" viewBox="0 0 1704 964" fill="none" xmlns="http://www.w3.org/2000/svg">
<mask id="mask0_1_1204" style="mask-type:luminance" maskUnits="userSpaceOnUse" x="0" y="0" width="1704" height="964">
<path d="M1704 0H0V963.662H1704V0Z" fill="white"/>
</mask>
<g mask="url(#mask0_1_1204)">
<path d="M1704 0H0V963.672H1704V0Z" fill="white"/>
<path d="M1704 0H0V963.672H1704V0Z" fill="#BF8CF1"/>
<g style="mix-blend-mode:soft-light" opacity="0.5">
<path d="M875 826C1007.55 826 1115 838.088 1115 853C1115 867.912 1007.55 880 875 880C742.452 880 635 867.912 635 853C635 838.088 742.452 826 875 826Z" fill="#3844AF"/>
</g>
<g opacity="0.6">
<path d="M240.999 1.40417C272.234 16.4692 301.878 32.693 329.687 50.0452C339.966 56.4799 350.031 63.0365 359.79 69.7761C372.363 78.4065 384.508 87.3113 396.409 96.3991C500.515 175.872 582.197 268.488 720.047 325.454C909.689 403.859 1161.34 396.571 1386.78 369.856C1491.92 357.414 1596.98 341.343 1703.1 334.298" stroke="#FFEEED" stroke-miterlimit="10"/>
<path d="M384.7 1.40417C404.065 9.18064 424.103 16.3777 444.661 22.9648C664.56 93.3495 926.676 89.263 1175.27 82.2794C1262.64 79.8093 1350.9 77.2476 1436.99 86.5794C1443.44 87.2808 1449.9 88.0737 1456.29 88.8971C1480.12 92.0382 1503.59 96.1551 1526.5 101.187C1528.98 101.736 1531.49 102.285 1533.97 102.864H1534C1547.58 105.975 1560.98 109.39 1574.1 113.141C1575.54 113.538 1576.98 113.934 1578.36 114.361C1594.39 118.997 1610.08 124.089 1625.35 129.579C1652.67 139.398 1678.67 150.56 1703.08 162.88" stroke="#FFEEED" stroke-miterlimit="10"/>
<path d="M0.454102 460.769C8.46933 463.361 16.3622 466.045 24.1938 468.789C143.015 510.416 246.173 566.163 353.95 617.549C453.406 665 558.858 709.433 677.282 736.666C895.804 786.893 1139.11 774.542 1369.89 751.975C1480.36 741.179 1591.51 728.127 1703.08 730.079" stroke="#FFEEED" stroke-miterlimit="10"/>
<path d="M0.454102 965.019C10.7944 962.396 21.1958 959.774 31.5666 957.212C229.133 908.449 441.812 882.344 655.102 879.874C688.142 879.478 721.212 879.661 754.191 880.423C821.127 881.948 887.911 885.821 954.082 892.072C1140.76 909.699 1322.38 945.715 1510.56 956.114C1572.85 959.56 1638.31 959.865 1703.05 955.87" stroke="#FFEEED" stroke-miterlimit="10"/>
<path d="M0.454102 270.833C114.625 276.505 229.316 298.859 331.954 329.873C527.317 388.974 694.842 476.559 881.762 544.931C1062.44 610.985 1263.28 659.138 1472.99 674.081C1549.17 679.509 1626.57 680.394 1703.08 676.338" stroke="#FFEEED" stroke-miterlimit="10"/>
</g>
<path d="M1704 0V94.5634C1680.05 118.993 1646.55 134.182 1609.47 134.182C1536.64 134.182 1477.62 75.6004 1477.62 3.36256C1477.62 2.24171 1477.64 1.12085 1477.66 0H1704Z" fill="#FDBACC"/>
<path d="M174.775 908.139C174.775 839.432 118.913 783.746 49.9881 783.746C32.2139 783.746 15.2962 787.436 0 794.115V962.635H162.201C170.247 946.167 174.775 927.687 174.775 908.139Z" fill="#917AFE"/>
<path d="M113.192 437.618C113.192 487.298 73.1733 527.581 23.7962 527.581C15.5591 527.581 7.5736 526.452 0 524.356V350.879C7.5736 348.783 15.5591 347.655 23.7962 347.655C73.1733 347.655 113.192 387.938 113.192 437.618Z" fill="#FDBACC"/>
<path d="M1704 490.985V731.903C1645.23 723.68 1599.99 672.886 1599.99 611.444C1599.99 550.002 1645.23 499.208 1704 490.985Z" fill="#917AFE"/>
<path d="M1707.06 772.849V966.722H1581.76C1562.62 945.714 1551.04 918.089 1551.04 887.836C1551.04 821.935 1606.12 768.498 1674.05 768.498C1685.5 768.498 1696.55 770.016 1707.06 772.849Z" fill="#FFE500"/>
<path d="M0 193.873V0H125.303C144.435 21.0076 156.022 48.6325 156.022 78.8861C156.022 144.787 100.939 198.224 33.0077 198.224C21.5613 198.224 10.512 196.705 0 193.873Z" fill="#FFE500"/>
<path d="M142.232 634.659L146.699 644.539C147.372 646.003 148.503 647.192 149.972 647.863L160.71 652.987C161.169 653.2 161.169 653.84 160.71 654.054L150.89 658.689C148.779 659.696 147.127 661.403 146.178 663.508L142.232 672.352C142.018 672.809 141.345 672.809 141.161 672.352L136.817 662.562C136.114 661.007 134.89 659.726 133.33 658.994L122.714 654.023C122.255 653.81 122.255 653.17 122.714 652.956L134.125 647.589C135.226 647.07 136.083 646.186 136.572 645.058L141.131 634.659C141.345 634.201 141.987 634.201 142.201 634.659H142.232Z" fill="#FFF3F2"/>
<path d="M482.933 76.5263L489.664 91.4083C490.673 93.604 492.417 95.4033 494.589 96.4402L510.773 104.156C511.446 104.491 511.446 105.436 510.773 105.772L495.966 112.786C492.815 114.28 490.276 116.872 488.868 120.044L482.933 133.371C482.628 134.072 481.618 134.072 481.312 133.371L474.765 118.611C473.725 116.232 471.828 114.341 469.503 113.243L453.504 105.772C452.831 105.467 452.831 104.491 453.504 104.156L470.727 96.0437C472.379 95.2508 473.695 93.909 474.429 92.2317L481.312 76.5263C481.618 75.8249 482.628 75.8249 482.933 76.5263Z" fill="#FFF3F2"/>
<path d="M1658.2 244.184L1666.27 262.025C1667.47 264.678 1669.58 266.812 1672.18 268.063L1691.57 277.303C1692.4 277.7 1692.4 278.858 1691.57 279.224L1673.83 287.641C1670.04 289.44 1667.01 292.521 1665.32 296.363L1658.2 312.343C1657.83 313.197 1656.61 313.197 1656.24 312.343L1648.41 294.655C1647.15 291.819 1644.89 289.532 1642.07 288.221L1622.89 279.255C1622.07 278.858 1622.07 277.7 1622.89 277.334L1643.54 267.605C1645.53 266.66 1647.09 265.044 1647.98 263.031L1656.24 244.215C1656.61 243.361 1657.83 243.361 1658.2 244.215V244.184Z" fill="#FFF3F2"/>
<path d="M1278.55 14.2482L1282.59 23.1835C1283.2 24.4948 1284.24 25.5622 1285.56 26.2026L1295.28 30.838C1295.68 31.021 1295.68 31.6004 1295.28 31.8139L1286.38 36.0223C1284.49 36.9067 1282.96 38.462 1282.13 40.3832L1278.58 48.4037C1278.4 48.8306 1277.79 48.8306 1277.6 48.4037L1273.69 39.5293C1273.04 38.096 1271.94 36.9677 1270.5 36.2968L1260.9 31.8139C1260.5 31.6309 1260.5 31.0515 1260.9 30.838L1271.24 25.9586C1272.25 25.5012 1273.01 24.6778 1273.47 23.6714L1277.6 14.2482C1277.79 13.8212 1278.4 13.8212 1278.58 14.2482H1278.55Z" fill="#FFF3F2"/>
<path d="M1477.61 278.586L1481.65 287.522C1482.26 288.833 1483.3 289.9 1484.62 290.541L1494.32 295.176C1494.71 295.359 1494.71 295.938 1494.32 296.152L1485.41 300.36C1483.52 301.245 1481.99 302.8 1481.16 304.721L1477.61 312.742C1477.43 313.169 1476.82 313.169 1476.63 312.742L1472.72 303.867C1472.07 302.434 1470.97 301.306 1469.54 300.635L1459.93 296.152C1459.53 295.969 1459.53 295.389 1459.93 295.176L1470.27 290.297C1471.28 289.839 1472.04 289.016 1472.5 288.009L1476.63 278.586C1476.82 278.159 1477.43 278.159 1477.61 278.586Z" fill="#FFF3F2"/>
<path d="M1501.82 541.556L1505.85 550.491C1506.47 551.802 1507.51 552.87 1508.82 553.51L1518.55 558.146C1518.95 558.329 1518.95 558.908 1518.55 559.121L1509.65 563.33C1507.75 564.214 1506.22 565.77 1505.4 567.691L1501.85 575.711C1501.66 576.138 1501.05 576.138 1500.87 575.711L1496.95 566.837C1496.31 565.404 1495.21 564.275 1493.77 563.604L1484.16 559.121C1483.77 558.938 1483.77 558.359 1484.16 558.146L1494.5 553.266C1495.51 552.809 1496.28 551.985 1496.74 550.979L1500.87 541.556C1501.05 541.129 1501.66 541.129 1501.85 541.556H1501.82Z" fill="#FFF3F2"/>
<path d="M251.469 226.597L255.507 235.532C256.119 236.844 257.159 237.911 258.474 238.551L268.203 243.187C268.6 243.37 268.6 243.949 268.203 244.163L259.3 248.371C257.404 249.255 255.874 250.811 255.048 252.732L251.499 260.752C251.316 261.179 250.704 261.179 250.52 260.752L246.604 251.878C245.962 250.445 244.861 249.316 243.423 248.646L233.817 244.163C233.419 243.98 233.419 243.4 233.817 243.187L244.157 238.307C245.167 237.85 245.931 237.027 246.39 236.02L250.52 226.597C250.704 226.17 251.316 226.17 251.499 226.597H251.469Z" fill="#FFF3F2"/>
<path d="M233.968 498.404L238.006 507.339C238.618 508.65 239.658 509.718 240.974 510.358L250.672 514.994C251.069 515.176 251.069 515.756 250.672 515.969L241.769 520.178C239.873 521.062 238.343 522.618 237.517 524.539L233.968 532.559C233.785 532.986 233.173 532.986 232.989 532.559L229.073 523.685C228.431 522.252 227.33 521.123 225.892 520.452L216.286 515.969C215.888 515.786 215.888 515.207 216.286 514.994L226.626 510.114C227.636 509.657 228.4 508.833 228.859 507.827L232.989 498.404C233.173 497.977 233.785 497.977 233.968 498.404Z" fill="#FFF3F2"/>
<path d="M1192.7 604.145L1196.74 613.08C1197.35 614.392 1198.39 615.459 1199.71 616.099L1209.43 620.735C1209.83 620.918 1209.83 621.497 1209.43 621.711L1200.53 625.919C1198.64 626.803 1197.11 628.359 1196.28 630.28L1192.73 638.3C1192.55 638.727 1191.94 638.727 1191.75 638.3L1187.84 629.426C1187.19 627.993 1186.09 626.864 1184.65 626.193L1175.05 621.711C1174.65 621.528 1174.65 620.948 1175.05 620.735L1185.39 615.855C1186.4 615.398 1187.16 614.575 1187.62 613.568L1191.75 604.145C1191.94 603.718 1192.55 603.718 1192.73 604.145H1192.7Z" fill="#FFF3F2"/>
<path d="M470.821 771.191L474.859 780.126C475.471 781.438 476.511 782.505 477.827 783.145L487.524 787.781C487.922 787.964 487.922 788.543 487.524 788.757L478.622 792.965C476.725 793.85 475.196 795.405 474.37 797.326L470.821 805.346C470.637 805.773 470.025 805.773 469.842 805.346L465.926 796.472C465.284 795.039 464.182 793.91 462.744 793.24L453.138 788.757C452.741 788.574 452.741 787.994 453.138 787.781L463.479 782.901C464.488 782.444 465.253 781.621 465.712 780.614L469.842 771.191C470.025 770.764 470.637 770.764 470.821 771.191Z" fill="#FFF3F2"/>
<path d="M266.736 61.2991L270.284 69.1671C270.804 70.3259 271.722 71.2713 272.885 71.8202L281.42 75.9067C281.787 76.0896 281.787 76.5776 281.42 76.7605L273.588 80.4506C271.906 81.2435 270.59 82.6158 269.825 84.293L266.674 91.3376C266.521 91.7036 265.971 91.7036 265.818 91.3376L262.361 83.5306C261.81 82.2803 260.831 81.2739 259.577 80.6945L251.133 76.7301C250.766 76.5471 250.766 76.0591 251.133 75.8762L260.25 71.5762C261.137 71.1493 261.81 70.4479 262.208 69.5635L265.848 61.2686C266.001 60.9027 266.552 60.9027 266.705 61.2686L266.736 61.2991Z" fill="#FFF3F2"/>
<path d="M714.208 139.367C719.466 142.346 722.094 146.873 722.094 152.949C722.094 158.557 720.254 162.968 716.574 166.181C712.952 169.394 707.665 171 700.713 171H674.776V109.661H699.136C706.029 109.661 711.287 111.151 714.909 114.13C718.531 117.109 720.342 121.374 720.342 126.924C720.342 132.24 718.297 136.387 714.208 139.367ZM698.085 124.733H692.301V132.97L699.048 132.882C701.56 132.532 702.816 131.188 702.816 128.851C702.816 127.508 702.349 126.485 701.414 125.784C700.48 125.083 699.37 124.733 698.085 124.733ZM699.662 155.928C701.064 155.928 702.232 155.519 703.167 154.701C704.102 153.884 704.569 152.832 704.569 151.547C704.569 149.093 703.255 147.662 700.626 147.253L692.301 147.165V155.928H699.662ZM727.831 109.661H745.357V171H727.831V109.661ZM797.039 109.661V126.661H782.581V171H765.056V126.661H750.597V109.661H797.039ZM833.405 171L831.302 163.114H813.601L811.498 171H792.658L812.199 109.661H832.704L852.244 171H833.405ZM817.369 149.093H827.534L822.451 130.253L817.369 149.093ZM882.981 155.665C885.727 155.665 888.151 155.052 890.254 153.825C892.415 152.54 894.022 150.817 895.073 148.655L910.321 157.418C907.692 162.033 903.953 165.684 899.104 168.371C894.314 171.058 889.086 172.402 883.419 172.402C874.014 172.402 866.303 169.364 860.286 163.289C854.327 157.155 851.348 149.502 851.348 140.331C851.348 131.159 854.327 123.535 860.286 117.46C866.303 111.326 874.014 108.259 883.419 108.259C889.027 108.259 894.226 109.632 899.017 112.378C903.865 115.065 907.633 118.657 910.321 123.156L895.073 131.918C894.022 129.874 892.415 128.209 890.254 126.924C888.092 125.638 885.668 124.996 882.981 124.996C876.905 124.996 872.641 127.479 870.187 132.444H888.677V148.217H870.187C872.641 153.183 876.905 155.665 882.981 155.665ZM978.691 109.661V171H961.165V141.119L947.496 164.077H945.918L932.248 141.119V171H914.723V109.661H932.248L946.707 134.635L961.165 109.661H978.691ZM1040.83 163.201C1034.57 169.335 1026.89 172.402 1017.78 172.402C1008.67 172.402 1000.95 169.335 994.646 163.201C988.395 157.009 985.27 149.385 985.27 140.331C985.27 131.276 988.395 123.681 994.646 117.548C1000.95 111.355 1008.67 108.259 1017.78 108.259C1026.89 108.259 1034.57 111.355 1040.83 117.548C1047.13 123.681 1050.29 131.276 1050.29 140.331C1050.29 149.385 1047.13 157.009 1040.83 163.201ZM1007 151.021C1009.86 153.825 1013.46 155.227 1017.78 155.227C1022.1 155.227 1025.67 153.825 1028.47 151.021C1031.33 148.159 1032.76 144.595 1032.76 140.331C1032.76 136.066 1031.33 132.532 1028.47 129.728C1025.67 126.865 1022.1 125.434 1017.78 125.434C1013.46 125.434 1009.86 126.865 1007 129.728C1004.2 132.532 1002.8 136.066 1002.8 140.331C1002.8 144.595 1004.2 148.159 1007 151.021ZM1059.05 148.217L1055.98 127.187V109.661H1076.14V127.187L1073.07 148.217H1059.05ZM1073.16 169.423C1071.23 171.351 1068.87 172.314 1066.06 172.314C1063.26 172.314 1060.86 171.351 1058.88 169.423C1056.95 167.437 1055.98 165.041 1055.98 162.237C1055.98 159.433 1056.95 157.067 1058.88 155.14C1060.86 153.153 1063.26 152.16 1066.06 152.16C1068.87 152.16 1071.23 153.153 1073.16 155.14C1075.14 157.067 1076.14 159.433 1076.14 162.237C1076.14 165.041 1075.14 167.437 1073.16 169.423Z" fill="white"/>
<path d="M518.469 209.661V226.661H504.011V271H486.485V226.661H472.027V209.661H518.469ZM557.008 271V242.959L537.73 271H523.71V209.661H541.235V237.702L560.513 209.661H574.533V271H557.008ZM633.233 209.661H650.759V271H633.233V248.392H618.337V271H600.811V209.661H618.337V231.393H633.233V209.661ZM695.003 271L692.9 263.114H675.2L673.097 271H654.257L673.798 209.661H694.302L713.843 271H695.003ZM678.968 249.093H689.132L684.05 230.253L678.968 249.093ZM759.44 209.661C765.808 209.661 771.124 211.677 775.388 215.707C779.653 219.68 781.785 224.996 781.785 231.655C781.785 238.315 779.653 243.66 775.388 247.691C771.124 251.664 765.808 253.65 759.44 253.65H752.43V271H734.904V209.661H759.44ZM759.44 236.65C760.784 236.65 761.923 236.212 762.857 235.336C763.792 234.401 764.259 233.174 764.259 231.655C764.259 230.137 763.792 228.939 762.857 228.063C761.923 227.128 760.784 226.661 759.44 226.661H752.43V236.65H759.44ZM787.019 209.661H804.544V271H787.019V209.661ZM852.722 239.367C857.979 242.346 860.608 246.873 860.608 252.949C860.608 258.557 858.768 262.968 855.088 266.181C851.466 269.394 846.179 271 839.227 271H813.289V209.661H837.65C844.543 209.661 849.801 211.151 853.423 214.13C857.045 217.109 858.856 221.374 858.856 226.924C858.856 232.24 856.811 236.387 852.722 239.367ZM836.598 224.733H830.815V232.97L837.562 232.882C840.074 232.532 841.33 231.188 841.33 228.851C841.33 227.508 840.863 226.485 839.928 225.784C838.993 225.083 837.883 224.733 836.598 224.733ZM838.176 255.928C839.578 255.928 840.746 255.519 841.681 254.701C842.615 253.884 843.083 252.832 843.083 251.547C843.083 249.093 841.768 247.662 839.139 247.253L830.815 247.165V255.928H838.176ZM898.767 209.661H916.292V271H898.767V248.392H883.87V271H866.345V209.661H883.87V231.393H898.767V209.661ZM925.048 209.661H942.573V271H925.048V209.661ZM967.547 239.016L975.434 209.661H988.578L985.949 239.016H967.547ZM989.454 239.016L997.34 209.661H1010.48L1007.86 239.016H989.454ZM1064.87 254H1071.44V282.742H1053.91V271H1027.63V282.742H1010.1V254H1016.59C1019.04 249.561 1020.27 243.368 1020.27 235.423V209.661H1064.87V254ZM1034.72 254H1047.34V225.784H1037.79V235.599C1037.79 243.193 1036.77 249.327 1034.72 254ZM1112.77 239.542C1118.26 242.58 1121 247.341 1121 253.825C1121 259.375 1118.93 263.873 1114.78 267.32C1110.69 270.708 1105 272.402 1097.69 272.402C1091.27 272.402 1086.07 271.117 1082.1 268.546C1078.12 265.976 1075.29 262.559 1073.6 258.294L1088.41 249.619C1090.22 253.708 1093.31 255.753 1097.69 255.753C1101.55 255.753 1103.48 254.351 1103.48 251.547C1103.48 249.152 1102.02 247.837 1099.1 247.604L1089.81 247.516V232.619L1097.08 232.532C1100.12 232.357 1101.64 231.042 1101.64 228.589C1101.64 225.901 1099.86 224.558 1096.29 224.558C1092.49 224.558 1089.92 226.369 1088.58 229.991L1074.03 221.491C1075.79 217.285 1078.74 214.042 1082.88 211.764C1087.03 209.427 1091.65 208.259 1096.73 208.259C1103.39 208.259 1108.79 209.982 1112.94 213.429C1117.09 216.817 1119.16 221.316 1119.16 226.924C1119.16 232.473 1117.03 236.679 1112.77 239.542ZM1144.18 254.877H1166.97V271H1126.66V209.661H1166.53V225.609H1144.18V232.269H1164.34V248.042H1144.18V254.877ZM1206.4 209.661H1223.93V271H1206.4V248.392H1191.51V271H1173.98V209.661H1191.51V231.393H1206.4V209.661ZM1252.84 209.661L1244.95 239.016H1231.81L1234.44 209.661H1252.84ZM1274.74 209.661L1266.86 239.016H1253.71L1256.34 209.661H1274.74Z" fill="white"/>
<mask id="mask1_1_1204" style="mask-type:luminance" maskUnits="userSpaceOnUse" x="634" y="313" width="481" height="496">
<path d="M1115 313H634V809H1115V313Z" fill="white"/>
</mask>
<g mask="url(#mask1_1_1204)">
<path d="M819.499 648.885C819.499 648.885 793.368 672.109 782.564 707.42C782.564 707.42 835.724 730.643 853.743 754.8H896.099C896.099 754.8 944.754 721.357 973.595 712.987C973.595 712.987 955.576 671.174 929.445 653.519C903.314 635.863 819.518 648.867 819.518 648.867L819.499 648.885Z" fill="#7D73DC"/>
<path opacity="0.3" d="M819.499 648.885C819.499 648.885 793.368 672.109 782.564 707.42C782.564 707.42 835.724 730.643 853.743 754.8H896.099C896.099 754.8 944.754 721.357 973.595 712.987C973.595 712.987 955.576 671.174 929.445 653.519C903.314 635.863 819.518 648.867 819.518 648.867L819.499 648.885Z" fill="#121237"/>
<path opacity="0.3" d="M951.015 674.855C944.791 666.747 937.501 658.975 929.426 653.538C903.295 635.882 819.499 648.886 819.499 648.886C819.499 648.886 814.078 653.725 807.143 662.319C843.069 694.753 904.248 690.325 951.015 674.855Z" fill="#121237"/>
<path d="M867.93 759.097C867.93 759.097 833.013 723.469 779.218 704.206C725.422 684.925 659.365 692.081 664.075 730.512C668.786 768.943 782.04 776.977 867.911 759.116L867.93 759.097Z" fill="#7D73DC"/>
<path opacity="0.2" d="M867.93 759.097C867.93 759.097 833.013 723.469 779.218 704.206C725.422 684.925 659.365 692.081 664.075 730.512C668.786 768.943 782.04 776.977 867.911 759.116L867.93 759.097Z" fill="#121237"/>
<path d="M886.248 755.286C886.248 755.286 919.221 715.08 973.203 700.32C1027.19 685.56 1094.87 705.738 1087.02 743.628C1079.17 781.536 968.306 780.191 886.248 755.286Z" fill="#7D73DC"/>
<path opacity="0.2" d="M886.248 755.286C886.248 755.286 919.221 715.08 973.203 700.32C1027.19 685.56 1094.87 705.738 1087.02 743.628C1079.17 781.536 968.306 780.191 886.248 755.286Z" fill="#121237"/>
<path d="M815.667 738.452C815.667 738.452 838.49 748.448 862.958 748.373C887.425 748.298 898.772 735.108 910.772 759.508C922.791 783.908 799.854 767.785 799.854 767.785L815.667 738.452Z" fill="#FCBA8D"/>
<path d="M828.583 735.855C828.583 735.855 706.768 680.89 672.58 708.148C638.393 735.407 695.216 764.011 721.217 768.925C747.217 773.838 768.395 780.545 803.555 784.562C803.555 784.562 825.219 765.356 828.602 735.855H828.583Z" fill="#7D73DC"/>
<path d="M1040.33 774.137C971.932 794.539 866.902 798.986 866.902 798.986C866.902 798.986 805.667 809.542 795.685 805.114C793.611 806.664 789.91 809.187 788.227 809C785.816 808.72 786.096 806.328 785.293 805.431C784.695 804.759 789.031 801.9 791.349 800.443C791.293 800.368 791.237 800.293 791.181 800.219L783.255 803.451C783.255 803.451 779.536 801.396 780.171 800.294C780.638 799.471 785.76 796.912 788.302 795.679C788.265 795.604 788.227 795.529 788.171 795.473L777.853 798.593C777.853 798.593 775.816 796.912 775.068 794.875C774.451 793.194 782.283 790.429 784.994 789.532C784.994 789.532 784.994 789.513 784.994 789.495C782.078 790.298 773.199 792.652 772.433 791.307C771.535 789.7 770.844 786.804 772.358 785.198C773.162 784.338 778.377 783.553 782.022 783.105C774.769 783.46 768.433 781.069 768.433 781.069C766.489 774.791 771.255 768.532 772.863 768.102C774.096 767.766 779.629 768.794 782.208 769.317C782.339 769.298 782.508 769.279 782.638 769.261C783.068 769.205 783.517 769.13 784.003 769.055C784.302 769.018 784.638 768.962 784.956 768.924C785.349 768.868 785.723 768.812 786.134 768.756C786.526 768.7 786.938 768.644 787.349 768.588C787.685 768.532 788.059 768.495 788.414 768.439C790.171 768.196 792.097 767.934 794.171 767.654C794.396 767.617 794.62 767.598 794.844 767.561C795.573 767.467 796.302 767.374 797.05 767.28C797.218 767.262 797.405 767.243 797.592 767.206C800.153 766.869 802.882 766.533 805.742 766.215C805.779 766.215 805.798 766.215 805.816 766.215C806.751 766.103 807.704 765.991 808.676 765.898C808.788 765.898 808.919 765.879 809.05 765.86C813.013 765.412 817.162 764.982 821.424 764.59C821.649 764.571 821.854 764.553 822.078 764.534C823.05 764.441 824.041 764.366 825.032 764.272C825.069 764.272 825.107 764.272 825.144 764.272C886.603 772.661 964.735 732.193 977.652 735.967C1005.78 744.151 977.147 742.6 1059.58 731.895" fill="#FFCDAB"/>
<path d="M902.865 796.575C897.743 784.562 895.426 771.409 896.79 757.995C935.894 748.522 969.539 733.557 977.633 735.911C1005.76 744.095 977.128 742.544 1059.56 731.838L1040.33 774.137C997.241 786.991 939.613 793.511 902.865 796.575Z" fill="#FCBA8D"/>
<path d="M902.51 752.838C902.51 752.838 901.295 776.678 918.417 802.293C918.417 802.293 1019.97 793.96 1053.63 780.844C1087.28 767.729 1099.52 727.224 1074.44 714.108C1049.35 700.993 1001.63 703.384 902.51 752.838Z" fill="#7D73DC"/>
<path d="M905.314 346.667C905.314 346.667 909.519 320.529 881.967 314.943C854.416 309.338 831.069 314.476 817.069 349.47C803.069 384.463 828.733 404.062 790.919 429.265C753.105 454.469 742.357 503.456 788.115 529.594C833.873 555.731 934.249 552.929 954.791 511.863C975.334 470.798 930.51 460.541 932.38 421.792C933.669 395.187 939.856 333.122 905.295 346.667H905.314Z" fill="#1E1B1B"/>
<path d="M963.595 504.278C958.231 458.243 900.715 507.548 896.528 468.836C893.874 444.156 897.725 433.263 897.725 433.263L855.406 432.74C855.406 432.74 861.967 473.021 848.247 481.914C835.967 489.892 786.844 467.79 782.676 507.548C778.507 547.305 891.762 533.181 891.762 533.181C891.762 533.181 967.969 541.831 963.595 504.278Z" fill="#FFCDAB"/>
<path d="M911.202 393.338C911.202 393.338 918.641 384.706 923.688 395.075C928.735 405.444 913.108 425.435 907.071 420.129C901.033 414.823 911.202 393.338 911.202 393.338Z" fill="#FCBA8D"/>
<path d="M920.716 383.529C920.716 383.529 922.118 403.595 908.118 418.055L905.314 382.128L920.716 383.529Z" fill="#1E1B1B"/>
<path d="M835.088 393.338C835.088 393.338 827.649 384.706 822.602 395.075C817.555 405.444 833.181 425.435 839.219 420.129C845.256 414.823 835.088 393.338 835.088 393.338Z" fill="#FCBA8D"/>
<path d="M825.574 383.529C825.574 383.529 824.172 403.595 838.172 418.055L840.976 382.128L825.574 383.529Z" fill="#1E1B1B"/>
<path d="M875.444 341.529C875.444 341.529 827.593 339.026 833.424 396.588C838.397 445.744 865.948 453.983 880.267 452.115C894.585 450.246 908.155 439.971 913.258 401.091C918.23 363.146 909.052 340.894 875.444 341.511V341.529Z" fill="#FFCDAB"/>
<path d="M905.314 346.667L903.444 349.937C903.444 349.937 893.183 363.463 867.033 360.194C840.883 356.924 832.49 373.253 832.49 388.2C832.49 403.146 819.424 367.667 827.35 351.338C835.294 335.009 886.64 322.398 905.314 346.667Z" fill="#1E1B1B"/>
<path d="M902.155 347.209C902.248 348.685 901.856 349.918 901.276 351.058C893.986 360.362 882.005 363.295 870.827 363.033L865.294 362.66C856.378 361.744 846.397 363.669 840.453 370.918C835.742 376.579 834.06 384.22 834.284 391.507C833.238 371.833 845.873 360.1 865.369 361.67C877.575 362.585 891.706 359.988 899.725 350.03C899.893 349.488 901.089 347.825 902.155 347.209Z" fill="#1E1B1B"/>
<path d="M843.686 397.99C849.5 404.192 855.93 404.716 862.603 399.484C863.425 398.83 864.266 398.158 865.163 397.523C864.565 398.419 863.892 399.297 863.219 400.157C857.313 407.126 847.649 406.434 843.686 397.99Z" fill="#1E1B1B"/>
<path d="M907.183 397.99C903.201 406.453 893.538 407.126 887.65 400.157C886.977 399.279 886.304 398.419 885.706 397.523C886.603 398.158 887.444 398.83 888.267 399.484C894.94 404.716 901.37 404.174 907.183 397.99Z" fill="#1E1B1B"/>
<path d="M882.435 397.541C884.846 403.015 885.313 408.135 889.295 412.245L892.304 415.159C888.715 416.691 885.033 418.354 881.033 418.541C882.566 416.019 884.566 414.057 886.771 412.245V416.43C879.986 413.067 878.734 403.576 882.435 397.541Z" fill="#FCA76C"/>
<path d="M843.088 383.678C848.733 379.512 857.257 379.419 862.995 383.678" stroke="#1E1B1B" stroke-width="2" stroke-linecap="round" stroke-linejoin="round"/>
<path d="M886.491 383.678C892.136 379.512 900.659 379.419 906.398 383.678" stroke="#1E1B1B" stroke-width="2" stroke-linecap="round" stroke-linejoin="round"/>
<path d="M747.815 650.1C743.815 643.542 739.946 635.228 734.993 628.147C728.133 632.687 719.647 639.189 709.403 649.838C694.917 664.916 684.637 672.763 678.973 676.518C675.889 674.892 669.758 671.959 666.73 672.538C662.58 673.323 647.458 674.313 663.72 677.695L666.169 680.908L653.44 683.972C653.44 683.972 661.421 673.529 655.944 677.004C650.468 680.479 638.505 688.625 653.589 687.242C653.589 687.242 633.084 692.305 634.598 693.856C636.112 695.407 656.842 691.52 656.842 691.52C656.842 691.52 603.551 711.269 659.814 697.649C659.814 697.649 602.093 721.582 672.113 699.33C681.851 696.229 688.898 693.968 693.945 692.305C705.085 689.297 730.936 679.152 755.367 662.767C752.918 658.526 750.413 654.285 747.834 650.081L747.815 650.1Z" fill="#FFCDAB"/>
<path d="M695.459 691.875C707.31 688.419 731.946 678.461 755.348 662.786C752.9 658.545 750.395 654.304 747.815 650.1C743.815 643.542 739.946 635.228 734.993 628.147C728.133 632.687 719.647 639.189 709.403 649.838C697.833 661.87 688.954 669.306 682.954 673.715C686.805 679.956 691.16 685.897 695.459 691.894V691.875Z" fill="#FCBA8D"/>
<path d="M690.898 660.488C690.898 660.488 698.057 686.7 707.59 691.464C707.59 691.464 765.404 667.625 787.461 643.804C809.517 619.964 816.676 555.619 816.676 555.619L777.33 505.567C777.33 505.567 754.675 601.486 750.507 609.24C746.712 616.302 690.898 660.469 690.898 660.469V660.488Z" fill="white"/>
<path d="M684.936 655.126C684.936 655.126 691.496 685.504 708.786 695.631L727.273 685.504C727.273 685.504 709.385 655.126 707.011 643.206L684.954 655.126H684.936Z" fill="#EDE9CC"/>
<path d="M692.244 658.115C692.244 660.338 694.039 662.132 696.263 662.132C698.487 662.132 700.282 660.338 700.282 658.115C700.282 655.892 698.487 654.098 696.263 654.098C694.039 654.098 692.244 655.892 692.244 658.115Z" fill="white"/>
<path d="M1001.18 652.174C1005.18 645.616 1009.05 637.302 1014.01 630.221C1020.87 634.761 1029.35 641.263 1039.6 651.912C1054.08 666.99 1064.36 674.837 1070.03 678.592C1073.11 676.966 1079.24 674.033 1082.27 674.612C1086.42 675.397 1101.54 676.387 1085.28 679.769L1082.83 682.982L1095.56 686.046C1095.56 686.046 1087.58 675.603 1093.06 679.078C1098.53 682.553 1110.5 690.699 1095.41 689.316C1095.41 689.316 1115.92 694.379 1114.4 695.93C1112.89 697.481 1092.16 693.594 1092.16 693.594C1092.16 693.594 1145.45 713.342 1089.19 699.722C1089.19 699.722 1146.91 723.656 1076.89 701.404C1067.15 698.303 1060.1 696.042 1055.05 694.379C1043.91 691.371 1018.06 681.226 993.633 664.841C996.082 660.6 998.587 656.359 1001.17 652.155L1001.18 652.174Z" fill="#FFCDAB"/>
<path d="M1053.54 693.968C1041.69 690.512 1017.05 680.554 993.652 664.879C996.101 660.637 998.605 656.396 1001.18 652.193C1005.18 645.635 1009.05 637.321 1014.01 630.24C1020.87 634.78 1029.35 641.282 1039.6 651.931C1051.17 663.963 1060.05 671.399 1066.05 675.808C1062.2 682.048 1057.84 687.99 1053.54 693.987V693.968Z" fill="#FCBA8D"/>
<path d="M1058.1 662.58C1058.1 662.58 1050.94 688.793 1041.41 693.557C1041.41 693.557 983.596 669.717 961.539 645.896C939.483 622.057 932.324 557.712 932.324 557.712L974.773 514.218C974.773 514.218 994.325 603.579 998.493 611.332C1002.29 618.395 1058.1 662.562 1058.1 662.562V662.58Z" fill="white"/>
<path d="M1064.06 657.218C1064.06 657.218 1057.5 687.597 1040.21 697.723L1021.73 687.597C1021.73 687.597 1039.62 657.218 1041.99 645.298L1064.05 657.218H1064.06Z" fill="#EDE9CC"/>
<path d="M1052.74 664.206C1054.96 664.206 1056.76 662.407 1056.76 660.189C1056.76 657.97 1054.96 656.172 1052.74 656.172C1050.52 656.172 1048.72 657.97 1048.72 660.189C1048.72 662.407 1050.52 664.206 1052.74 664.206Z" fill="white"/>
<path d="M976.268 524.512C972.698 498.598 959.277 480.719 941.389 481.615C923.501 482.512 908.304 479.822 908.304 479.822C908.304 479.822 878.79 503.512 876.565 503.512C876.061 503.512 875.332 504.147 874.472 505.1C873.631 504.147 872.883 503.512 872.378 503.512C870.135 503.512 840.64 479.822 840.64 479.822C840.64 479.822 825.443 482.512 807.555 481.615C789.667 480.719 776.264 498.598 772.676 524.512C772.676 524.512 778.04 548.202 797.256 559.804C797.256 559.804 799.499 589.735 813.349 607.166C813.349 607.166 811.106 647.391 817.817 650.959C822.097 653.239 844.341 667.382 874.453 668.989C904.547 670.614 928.884 658.601 933.165 656.321C939.875 652.753 938.679 606.718 938.679 606.718C952.53 589.286 951.651 559.804 951.651 559.804C970.866 548.183 976.231 524.512 976.231 524.512H976.268Z" fill="white"/>
<path d="M872.397 503.493C872.397 503.493 851.387 490.527 847.817 465.51L838.434 474.441L832.621 515.544L850.509 493.647C850.509 493.647 860.789 503.026 872.416 503.475L872.397 503.493Z" fill="#EDE9CC"/>
<path d="M874.192 504.39C874.192 504.39 895.201 491.424 898.771 466.407L908.155 475.338L913.968 516.441L896.08 494.544C896.08 494.544 885.799 503.923 874.173 504.371L874.192 504.39Z" fill="#EDE9CC"/>
<path d="M872.397 503.493C872.397 503.493 886.697 523.148 888.042 566.045C889.388 608.941 889.837 669.269 889.837 669.269L874.491 668.989C874.491 668.989 878.659 592.855 874.64 562.476C870.621 532.097 853.63 495.889 853.63 495.889L872.416 503.493H872.397Z" fill="#EDE9CC"/>
<path d="M874.36 506.707C873.164 504.558 872.397 503.493 872.397 503.493L853.612 495.889C853.612 495.889 855.406 499.719 857.967 505.922C863.444 506.819 868.92 507.211 874.341 506.688L874.36 506.707Z" fill="#EDE9CC"/>
<path d="M870.173 519.58C872.392 519.58 874.192 517.781 874.192 515.563C874.192 513.344 872.392 511.546 870.173 511.546C867.953 511.546 866.154 513.344 866.154 515.563C866.154 517.781 867.953 519.58 870.173 519.58Z" fill="white"/>
<path d="M878.659 548.184C880.879 548.184 882.678 546.385 882.678 544.167C882.678 541.948 880.879 540.15 878.659 540.15C876.44 540.15 874.64 541.948 874.64 544.167C874.64 546.385 876.44 548.184 878.659 548.184Z" fill="white"/>
<path d="M878.21 573.649C878.21 575.872 880.005 577.666 882.229 577.666C884.453 577.666 886.248 575.872 886.248 573.649C886.248 571.425 884.453 569.632 882.229 569.632C880.005 569.632 878.21 571.425 878.21 573.649Z" fill="white"/>
<path d="M883.575 609.389C885.794 609.389 887.594 607.591 887.594 605.373C887.594 603.154 885.794 601.356 883.575 601.356C881.355 601.356 879.556 603.154 879.556 605.373C879.556 607.591 881.355 609.389 883.575 609.389Z" fill="white"/>
<path d="M878.21 642.477C878.21 644.701 880.005 646.494 882.229 646.494C884.453 646.494 886.248 644.701 886.248 642.477C886.248 640.254 884.453 638.46 882.229 638.46C880.005 638.46 878.21 640.254 878.21 642.477Z" fill="white"/>
<path d="M777.965 535.647C781.853 549.659 788.003 560.738 798.9 565.652C799.405 577.833 802.844 589.118 808.209 599.805" stroke="black" stroke-miterlimit="10"/>
<path d="M971.147 535.871C967.016 551.472 960.455 563.784 948.81 569.258C948.268 582.822 944.604 595.377 938.884 607.259" stroke="black" stroke-miterlimit="10"/>
<path d="M898.286 444.511C885.257 455.739 875.5 457.365 861.537 449.537" stroke="black" stroke-miterlimit="10"/>
<path d="M672.58 708.148C701.833 691.614 757.984 705.552 828.583 735.856" stroke="black" stroke-miterlimit="10"/>
<path d="M1076.44 715.846C1047.19 699.311 991.035 713.249 920.436 743.553" stroke="black" stroke-miterlimit="10"/>
<path d="M902.491 755.734C904.809 760.723 828.92 769.504 825.013 764.217" stroke="#1E1B1B" stroke-miterlimit="10"/>
<path d="M863.855 429.209C865.986 430.199 868.565 430.442 870.846 430.965C877.743 432.385 884.154 432.46 890.472 428.742C887.07 438.607 873.145 438.42 866.304 432.329C865.369 431.414 864.154 430.554 863.855 429.209Z" fill="#FF8888"/>
</g>
</g>
</svg>
