<svg width="1704" height="964" viewBox="0 0 1704 964" fill="none" xmlns="http://www.w3.org/2000/svg">
<mask id="mask0_1_1295" style="mask-type:luminance" maskUnits="userSpaceOnUse" x="0" y="0" width="1704" height="964">
<path d="M1704 0H0V963.662H1704V0Z" fill="white"/>
</mask>
<g mask="url(#mask0_1_1295)">
<path d="M1704 0H0V963.672H1704V0Z" fill="white"/>
<path d="M1704 0H0V963.672H1704V0Z" fill="#BF8CF1"/>
<g style="mix-blend-mode:soft-light" opacity="0.5">
<path d="M874.934 878.593C1197.83 878.593 1459.59 857.772 1459.59 832.087C1459.59 806.402 1197.83 785.581 874.934 785.581C552.04 785.581 290.282 806.402 290.282 832.087C290.282 857.772 552.04 878.593 874.934 878.593Z" fill="#3844AF"/>
</g>
<g opacity="0.6">
<path d="M240.999 1.40417C272.234 16.4692 301.878 32.693 329.687 50.0452C339.966 56.4799 350.031 63.0365 359.79 69.7761C372.363 78.4065 384.508 87.3113 396.409 96.3991C500.515 175.872 582.197 268.488 720.047 325.454C909.689 403.859 1161.34 396.571 1386.78 369.856C1491.92 357.414 1596.98 341.343 1703.1 334.298" stroke="#FFEEED" stroke-miterlimit="10"/>
<path d="M384.7 1.40417C404.065 9.18064 424.103 16.3777 444.661 22.9648C664.56 93.3495 926.676 89.263 1175.27 82.2794C1262.64 79.8093 1350.9 77.2476 1436.99 86.5794C1443.44 87.2808 1449.9 88.0737 1456.29 88.8971C1480.12 92.0382 1503.59 96.1551 1526.5 101.187C1528.98 101.736 1531.49 102.285 1533.97 102.864H1534C1547.58 105.975 1560.98 109.39 1574.1 113.141C1575.54 113.538 1576.98 113.934 1578.36 114.361C1594.39 118.997 1610.08 124.089 1625.35 129.579C1652.67 139.398 1678.67 150.56 1703.08 162.88" stroke="#FFEEED" stroke-miterlimit="10"/>
<path d="M0.454102 460.769C8.46933 463.361 16.3622 466.045 24.1938 468.789C143.015 510.416 246.173 566.163 353.95 617.549C453.406 665 558.858 709.433 677.282 736.666C895.804 786.893 1139.11 774.542 1369.89 751.975C1480.36 741.179 1591.51 728.127 1703.08 730.079" stroke="#FFEEED" stroke-miterlimit="10"/>
<path d="M0.454102 965.019C10.7944 962.396 21.1958 959.774 31.5666 957.212C229.133 908.449 441.812 882.344 655.102 879.874C688.142 879.478 721.212 879.661 754.191 880.423C821.127 881.948 887.911 885.821 954.082 892.072C1140.76 909.699 1322.38 945.715 1510.56 956.114C1572.85 959.56 1638.31 959.865 1703.05 955.87" stroke="#FFEEED" stroke-miterlimit="10"/>
<path d="M0.454102 270.833C114.625 276.505 229.316 298.859 331.954 329.873C527.317 388.974 694.842 476.559 881.762 544.931C1062.44 610.985 1263.28 659.138 1472.99 674.081C1549.17 679.509 1626.57 680.394 1703.08 676.338" stroke="#FFEEED" stroke-miterlimit="10"/>
</g>
<path d="M1704 0V94.5634C1680.05 118.993 1646.55 134.182 1609.47 134.182C1536.64 134.182 1477.62 75.6004 1477.62 3.36256C1477.62 2.24171 1477.64 1.12085 1477.66 0H1704Z" fill="#FDBACC"/>
<path d="M174.775 908.139C174.775 839.432 118.913 783.746 49.9881 783.746C32.2139 783.746 15.2962 787.436 0 794.115V962.635H162.201C170.247 946.167 174.775 927.687 174.775 908.139Z" fill="#917AFE"/>
<path d="M113.192 437.618C113.192 487.298 73.1733 527.581 23.7962 527.581C15.5591 527.581 7.5736 526.452 0 524.356V350.879C7.5736 348.783 15.5591 347.655 23.7962 347.655C73.1733 347.655 113.192 387.938 113.192 437.618Z" fill="#FDBACC"/>
<path d="M1704 490.985V731.903C1645.23 723.68 1599.99 672.886 1599.99 611.444C1599.99 550.002 1645.23 499.208 1704 490.985Z" fill="#917AFE"/>
<path d="M1707.06 772.849V966.722H1581.76C1562.62 945.714 1551.04 918.089 1551.04 887.836C1551.04 821.935 1606.12 768.498 1674.05 768.498C1685.5 768.498 1696.55 770.016 1707.06 772.849Z" fill="#FFE500"/>
<path d="M0 193.873V0H125.303C144.435 21.0076 156.022 48.6324 156.022 78.8861C156.022 144.787 100.939 198.224 33.0077 198.224C21.5613 198.224 10.512 196.705 0 193.873Z" fill="#FFE500"/>
<path d="M142.232 634.659L146.699 644.539C147.372 646.003 148.503 647.192 149.972 647.863L160.71 652.987C161.169 653.2 161.169 653.84 160.71 654.054L150.89 658.689C148.779 659.696 147.127 661.403 146.178 663.508L142.232 672.352C142.018 672.809 141.345 672.809 141.161 672.352L136.817 662.562C136.114 661.007 134.89 659.726 133.33 658.994L122.714 654.023C122.255 653.81 122.255 653.17 122.714 652.956L134.125 647.589C135.226 647.07 136.083 646.186 136.572 645.058L141.131 634.659C141.345 634.201 141.987 634.201 142.201 634.659H142.232Z" fill="#FFF3F2"/>
<path d="M635.665 92.0162L642.396 106.898C643.405 109.094 645.149 110.893 647.321 111.93L663.504 119.645C664.178 119.981 664.178 120.926 663.504 121.262L648.698 128.276C645.547 129.77 643.008 132.362 641.6 135.534L635.665 148.861C635.359 149.562 634.35 149.562 634.044 148.861L627.497 134.101C626.457 131.722 624.56 129.831 622.235 128.733L606.235 121.262C605.562 120.957 605.562 119.981 606.235 119.645L623.459 111.534C625.111 110.741 626.427 109.399 627.161 107.722L634.044 92.0162C634.35 91.3148 635.359 91.3148 635.665 92.0162Z" fill="#FFF3F2"/>
<path d="M1658.2 244.184L1666.27 262.025C1667.47 264.678 1669.58 266.812 1672.18 268.063L1691.57 277.303C1692.4 277.699 1692.4 278.858 1691.57 279.224L1673.83 287.641C1670.04 289.44 1667.01 292.521 1665.32 296.363L1658.2 312.343C1657.83 313.197 1656.61 313.197 1656.24 312.343L1648.41 294.655C1647.15 291.819 1644.89 289.532 1642.07 288.221L1622.89 279.255C1622.07 278.858 1622.07 277.699 1622.89 277.334L1643.54 267.605C1645.53 266.66 1647.09 265.044 1647.98 263.031L1656.24 244.215C1656.61 243.361 1657.83 243.361 1658.2 244.215V244.184Z" fill="#FFF3F2"/>
<path d="M1278.55 14.2481L1282.59 23.1834C1283.2 24.4948 1284.24 25.5621 1285.56 26.2025L1295.28 30.8379C1295.68 31.0209 1295.68 31.6003 1295.28 31.8138L1286.38 36.0222C1284.49 36.9066 1282.96 38.4619 1282.13 40.3832L1278.58 48.4036C1278.4 48.8305 1277.79 48.8305 1277.6 48.4036L1273.69 39.5293C1273.04 38.096 1271.94 36.9676 1270.5 36.2967L1260.9 31.8138C1260.5 31.6308 1260.5 31.0514 1260.9 30.8379L1271.24 25.9586C1272.25 25.5011 1273.01 24.6777 1273.47 23.6714L1277.6 14.2481C1277.79 13.8212 1278.4 13.8212 1278.58 14.2481H1278.55Z" fill="#FFF3F2"/>
<path d="M1477.61 278.586L1481.65 287.521C1482.26 288.833 1483.3 289.9 1484.62 290.54L1494.32 295.176C1494.71 295.359 1494.71 295.938 1494.32 296.152L1485.41 300.36C1483.52 301.245 1481.99 302.8 1481.16 304.721L1477.61 312.742C1477.43 313.169 1476.82 313.169 1476.63 312.742L1472.72 303.867C1472.07 302.434 1470.97 301.306 1469.54 300.635L1459.93 296.152C1459.53 295.969 1459.53 295.389 1459.93 295.176L1470.27 290.297C1471.28 289.839 1472.04 289.016 1472.5 288.009L1476.63 278.586C1476.82 278.159 1477.43 278.159 1477.61 278.586Z" fill="#FFF3F2"/>
<path d="M1501.82 541.556L1505.85 550.491C1506.47 551.802 1507.51 552.87 1508.82 553.51L1518.55 558.146C1518.95 558.329 1518.95 558.908 1518.55 559.121L1509.65 563.33C1507.75 564.214 1506.22 565.77 1505.4 567.691L1501.85 575.711C1501.66 576.138 1501.05 576.138 1500.87 575.711L1496.95 566.837C1496.31 565.404 1495.21 564.275 1493.77 563.604L1484.16 559.121C1483.77 558.938 1483.77 558.359 1484.16 558.146L1494.5 553.266C1495.51 552.809 1496.28 551.985 1496.74 550.979L1500.87 541.556C1501.05 541.129 1501.66 541.129 1501.85 541.556H1501.82Z" fill="#FFF3F2"/>
<path d="M251.469 226.597L255.507 235.532C256.119 236.843 257.159 237.911 258.474 238.551L268.203 243.187C268.6 243.37 268.6 243.949 268.203 244.162L259.3 248.371C257.404 249.255 255.874 250.811 255.048 252.732L251.499 260.752C251.316 261.179 250.704 261.179 250.52 260.752L246.604 251.878C245.962 250.445 244.861 249.316 243.423 248.645L233.817 244.162C233.419 243.979 233.419 243.4 233.817 243.187L244.157 238.307C245.167 237.85 245.931 237.026 246.39 236.02L250.52 226.597C250.704 226.17 251.316 226.17 251.499 226.597H251.469Z" fill="#FFF3F2"/>
<path d="M233.968 498.404L238.006 507.339C238.618 508.65 239.658 509.718 240.974 510.358L250.672 514.994C251.069 515.176 251.069 515.756 250.672 515.969L241.769 520.178C239.873 521.062 238.343 522.618 237.517 524.539L233.968 532.559C233.785 532.986 233.173 532.986 232.989 532.559L229.073 523.685C228.431 522.252 227.33 521.123 225.892 520.452L216.286 515.969C215.888 515.786 215.888 515.207 216.286 514.994L226.626 510.114C227.636 509.657 228.4 508.833 228.859 507.827L232.989 498.404C233.173 497.977 233.785 497.977 233.968 498.404Z" fill="#FFF3F2"/>
<path d="M1192.7 604.145L1196.74 613.08C1197.35 614.392 1198.39 615.459 1199.71 616.099L1209.43 620.735C1209.83 620.918 1209.83 621.497 1209.43 621.711L1200.53 625.919C1198.64 626.803 1197.11 628.359 1196.28 630.28L1192.73 638.3C1192.55 638.727 1191.94 638.727 1191.75 638.3L1187.84 629.426C1187.19 627.993 1186.09 626.864 1184.65 626.193L1175.05 621.711C1174.65 621.528 1174.65 620.948 1175.05 620.735L1185.39 615.855C1186.4 615.398 1187.16 614.575 1187.62 613.568L1191.75 604.145C1191.94 603.718 1192.55 603.718 1192.73 604.145H1192.7Z" fill="#FFF3F2"/>
<path d="M470.821 771.191L474.859 780.126C475.471 781.438 476.511 782.505 477.827 783.145L487.524 787.781C487.922 787.964 487.922 788.543 487.524 788.757L478.622 792.965C476.725 793.85 475.196 795.405 474.37 797.326L470.821 805.346C470.637 805.773 470.025 805.773 469.842 805.346L465.926 796.472C465.284 795.039 464.182 793.91 462.744 793.24L453.138 788.757C452.741 788.574 452.741 787.994 453.138 787.781L463.479 782.901C464.488 782.444 465.253 781.621 465.712 780.614L469.842 771.191C470.025 770.764 470.637 770.764 470.821 771.191Z" fill="#FFF3F2"/>
<path d="M266.736 61.2991L270.284 69.1671C270.804 70.3259 271.722 71.2713 272.885 71.8202L281.42 75.9067C281.787 76.0896 281.787 76.5776 281.42 76.7605L273.588 80.4506C271.906 81.2435 270.59 82.6158 269.825 84.293L266.674 91.3376C266.521 91.7036 265.971 91.7036 265.818 91.3376L262.361 83.5306C261.81 82.2803 260.831 81.2739 259.577 80.6945L251.133 76.7301C250.766 76.5471 250.766 76.0591 251.133 75.8762L260.25 71.5762C261.137 71.1493 261.81 70.4479 262.208 69.5635L265.848 61.2686C266.001 60.9027 266.552 60.9027 266.705 61.2686L266.736 61.2991Z" fill="#FFF3F2"/>
<path d="M1398 432.427C1389.83 404.309 1364.22 383.511 1364.22 383.511L1309.31 398.973L1309.52 400.04C1298.23 401.382 1281.77 401.016 1272.57 395.283L1278.59 469.876C1273.94 474.115 1270.09 478.293 1267.92 481.983C1261.28 493.266 1274 514.034 1281.84 525.012H1281.77L1282.81 526.385C1285.45 530.014 1287.34 532.27 1287.34 532.27C1287.34 532.27 1287.4 532.27 1287.43 532.27L1334.88 592.469L1339.5 590.06L1392 726.865L1415.46 723.541C1415.46 723.541 1418.13 705.457 1416.2 679.291C1414.24 653.126 1401.21 629.065 1396.07 619.946C1390.93 610.828 1390.59 601.679 1385.97 565.633C1382.39 537.76 1374.01 511.533 1370.4 501.073C1374.16 499.274 1377.16 497.657 1379.12 496.285C1394.29 485.612 1406.19 460.574 1398.03 432.427H1398Z" fill="#599AFF"/>
<path d="M1335.29 592.227L1359.73 578.992C1359.73 578.992 1355.17 544.409 1348.75 525.014C1342.35 505.619 1348.62 524.282 1348.62 524.282L1301.76 549.685L1335.26 592.197L1335.29 592.227Z" fill="#599AFF"/>
<path d="M1344.86 422.666C1344.86 422.666 1281.63 463.53 1272.48 475.637" stroke="#FFDAD7" stroke-width="0.26" stroke-linecap="round" stroke-linejoin="round"/>
<path d="M1331.98 486.187C1331.98 486.187 1356.06 534.981 1359.73 578.986" stroke="#FFDAD7" stroke-width="0.26" stroke-linecap="round" stroke-linejoin="round"/>
<path d="M1341.35 506.768C1341.35 506.768 1359.21 506.89 1370.41 501.035" stroke="#FFDAD7" stroke-width="0.26" stroke-linecap="round" stroke-linejoin="round"/>
<path d="M1295.88 428.922L1304.35 435.966L1311.45 444.658" stroke="#FFDAD7" stroke-width="0.26" stroke-linecap="round" stroke-linejoin="round"/>
<path d="M1361.53 384.79C1372.46 397.049 1379.03 412.511 1384.75 427.881C1388.21 437.212 1391.48 446.819 1391.76 456.76C1392.07 466.702 1389.01 477.193 1381.6 483.871C1377.99 487.104 1373.59 489.299 1369.09 491.099C1363.49 493.355 1357.68 495.063 1351.75 496.222C1347.03 497.137 1341.96 497.838 1338.47 501.132" stroke="#FFDAD7" stroke-width="0.26" stroke-linecap="round" stroke-linejoin="round"/>
<path d="M1348.86 400.803C1354.19 407.421 1351.98 405.926 1358.26 411.172C1364.53 416.417 1372.27 419.07 1380.44 418.338" stroke="#FFDAD7" stroke-width="0.26" stroke-linecap="round" stroke-linejoin="round"/>
<path d="M1273.15 405.924C1275.38 406.564 1277.58 407.205 1279.85 407.754C1310.65 415.439 1344.92 407.876 1369.61 387.992" stroke="#FFDAD7" stroke-width="0.26" stroke-linecap="round" stroke-linejoin="round"/>
<path d="M1310.56 400.343C1311.39 403.759 1312 406.686 1312.58 410.132" stroke="#FFDAD7" stroke-width="0.26" stroke-linecap="round" stroke-linejoin="round"/>
<path d="M1316.14 406.166C1317.08 406.166 1317.85 405.402 1317.85 404.459C1317.85 403.516 1317.08 402.751 1316.14 402.751C1315.19 402.751 1314.42 403.516 1314.42 404.459C1314.42 405.402 1315.19 406.166 1316.14 406.166Z" fill="#FFDAD7"/>
<path d="M1312.46 409.55C1312.95 416.381 1313.84 423.212 1315.13 429.952C1315.25 430.623 1315.4 431.324 1315.89 431.812C1316.84 432.757 1318.4 432.33 1319.59 431.751" stroke="#FFDAD7" stroke-width="0.26" stroke-linecap="round" stroke-linejoin="round"/>
<path d="M1275.48 440.691C1276.15 440.813 1276.79 440.447 1277.38 440.05C1281.38 437.306 1283.71 432.731 1285.36 428.187C1287.56 422.18 1288.91 415.623 1287.47 409.371" stroke="#FFDAD7" stroke-width="0.26" stroke-linecap="round" stroke-linejoin="round"/>
<path d="M1365.14 503.605C1375.27 532.088 1381.75 561.883 1384.32 591.982C1384.96 599.332 1385.36 606.712 1387.23 613.848C1388.76 619.672 1391.27 625.192 1393.56 630.773C1405.49 659.836 1411.92 691.094 1412.41 722.474" stroke="#FFDAD7" stroke-width="0.26" stroke-linecap="round" stroke-linejoin="round"/>
<path d="M1387.93 656.846C1387.72 657.06 1387.5 657.243 1387.29 657.395C1387.11 657.548 1386.95 657.7 1386.77 657.792C1378.91 663.159 1371.66 659.865 1367.96 655.108C1367.13 654.071 1365.72 651.204 1363.95 647.423C1363.92 647.27 1363.83 647.118 1363.73 646.966C1362.11 643.397 1360.28 639.037 1358.41 634.554C1358.35 634.401 1358.26 634.218 1358.2 634.035C1357.49 632.327 1356.79 630.62 1356.09 628.912C1356.02 628.759 1355.93 628.576 1355.87 628.393C1351.68 618.055 1348.04 608.754 1348.04 608.754C1348.04 608.754 1348.04 608.663 1348.1 608.48C1348.84 605.644 1355.05 581.552 1359.39 579.326C1359.39 579.326 1359.4 579.326 1359.42 579.326C1359.88 579.112 1360.4 578.929 1360.98 578.807C1361.16 578.746 1361.38 578.716 1361.59 578.655C1365.69 577.892 1372.02 579.051 1376.09 581.064C1376.37 581.186 1376.64 581.308 1376.86 581.46C1377.87 582.009 1378.66 582.589 1379.21 583.259C1382.4 586.98 1386.59 611.102 1387.47 621.288C1388.33 630.955 1395.21 649.741 1387.93 656.846Z" fill="#FFB900"/>
<path d="M1338.55 590.607C1338.55 590.607 1348.56 608.538 1350.24 613.235C1351.92 617.931 1356.45 618.51 1362.51 616.162C1366.94 614.455 1369.88 601.677 1367.58 594.114C1365.29 586.581 1358.25 577.737 1358.25 577.737L1338.55 590.576V590.607Z" fill="#FFCDAB"/>
<path d="M1383.18 611.311C1383.55 615.428 1383.95 619.667 1384.59 623.814C1384.99 626.528 1385.54 629.304 1386.06 632.018C1386.46 634.061 1386.86 636.135 1387.19 638.239C1387.22 638.391 1387.25 638.544 1387.28 638.666C1388.26 644.765 1388.87 650.895 1387.96 656.841C1387.74 657.055 1387.53 657.238 1387.31 657.39C1388.35 651.322 1387.74 645.04 1386.73 638.757C1386.73 638.574 1386.67 638.391 1386.64 638.239C1386.3 636.165 1385.91 634.122 1385.54 632.079C1385.02 629.395 1384.5 626.589 1384.07 623.875C1383.43 619.728 1383.03 615.428 1382.66 611.342C1382.27 607.072 1381.87 602.65 1381.2 598.381C1380.52 594.111 1379.64 590.299 1378.44 586.853C1378.38 586.67 1378.32 586.487 1378.23 586.274C1377.59 584.444 1376.88 582.706 1376.09 581.089C1376.36 581.211 1376.64 581.333 1376.85 581.486C1377.59 583.011 1378.23 584.627 1378.81 586.365C1378.87 586.518 1378.93 586.67 1378.96 586.823C1380.13 590.238 1381.01 594.081 1381.69 598.289C1382.36 602.498 1382.76 607.011 1383.15 611.311H1383.18Z" fill="#453239"/>
<path d="M1364 647.42C1364 647.42 1363.85 647.42 1363.79 647.359C1363.7 647.268 1363.67 647.085 1363.79 646.993C1366.48 644.157 1370.3 642.754 1373.7 641.565C1375.93 640.772 1378.23 639.949 1380.52 639.339C1382.66 638.79 1384.87 638.424 1387.07 638.241C1387.22 638.241 1387.34 638.332 1387.34 638.485C1387.34 638.637 1387.25 638.759 1387.1 638.759C1384.93 638.942 1382.75 639.308 1380.64 639.857C1378.35 640.437 1376.09 641.26 1373.91 642.053C1370.55 643.273 1366.75 644.615 1364.15 647.359C1364.12 647.39 1364.06 647.42 1364 647.451V647.42Z" fill="#453239"/>
<path d="M1378.87 586.885C1378.87 586.885 1378.84 586.885 1378.81 586.885C1372.23 586.367 1365.74 583.439 1361 578.865C1360.88 578.773 1360.88 578.591 1361 578.499C1361.09 578.377 1361.28 578.408 1361.37 578.499C1366.02 582.982 1372.38 585.849 1378.84 586.367C1378.99 586.367 1379.08 586.519 1379.08 586.641C1379.08 586.763 1378.99 586.855 1378.87 586.885Z" fill="#453239"/>
<path d="M1375.54 628.052C1375.54 628.052 1375.45 628.326 1375.3 628.357H1375.18C1369.24 629.302 1363.52 631.437 1358.41 634.578C1358.35 634.426 1358.26 634.243 1358.2 634.06C1363.34 630.919 1369.12 628.784 1375.08 627.839H1375.21C1375.21 627.839 1375.51 627.9 1375.51 628.052H1375.54Z" fill="#453239"/>
<path d="M1374.53 621.592C1374.53 621.592 1374.44 621.897 1374.29 621.897H1374.2C1367.74 622.934 1361.53 625.343 1356.12 628.942C1356.06 628.789 1355.96 628.606 1355.9 628.423C1361.35 624.825 1367.62 622.416 1374.11 621.379H1374.2C1374.2 621.379 1374.5 621.44 1374.5 621.562L1374.53 621.592Z" fill="#453239"/>
<path d="M1445.17 745.836C1446.61 752.789 1442.88 763.371 1439.09 769.653C1434.25 777.582 1426.88 811.311 1420.91 821.252C1418.8 824.82 1415.96 826.864 1413.05 827.839C1412.65 827.992 1412.29 828.114 1411.89 828.205C1407.02 829.425 1402.25 827.901 1400.6 825.766C1399.65 824.515 1399.22 817.135 1399.1 808.017C1399.1 807.834 1399.1 807.621 1399.1 807.438C1399.04 802.467 1399.04 797.008 1399.1 791.763C1399.1 791.58 1399.1 791.397 1399.1 791.214C1399.13 788.866 1399.19 786.548 1399.22 784.322C1399.22 784.139 1399.22 783.956 1399.22 783.773C1399.35 776.454 1399.53 770.477 1399.59 768.311C1399.59 767.732 1399.62 767.427 1399.62 767.427L1423.45 731.655C1423.45 731.655 1423.45 731.655 1423.48 731.655C1423.7 731.716 1424.98 732.113 1426.82 732.784C1427 732.845 1427.22 732.906 1427.43 732.997C1431.93 734.644 1439.15 737.632 1442.88 741.261C1443.77 742.146 1444.44 743.274 1444.84 744.616C1444.99 745.013 1445.08 745.409 1445.14 745.805L1445.17 745.836Z" fill="#FFB900"/>
<path d="M1445.17 745.835C1444.56 748.915 1443.67 751.934 1442.63 754.892C1442.63 754.892 1442.63 754.953 1442.63 755.014C1442.63 755.014 1442.63 755.045 1442.63 755.075H1442.6C1442.45 755.655 1442.27 756.265 1442.02 756.814C1440.77 760.138 1439.21 763.431 1437.74 766.603C1436.52 769.195 1435.26 771.879 1434.16 774.562C1431.56 780.905 1429.72 787.615 1427.92 794.141C1426.7 798.502 1425.47 802.923 1424 807.315C1423.97 807.467 1423.91 807.62 1423.85 807.803C1422.72 811.127 1421.46 814.451 1419.93 817.623C1417.85 822.044 1415.62 825.399 1413.11 827.839C1412.71 827.991 1412.35 828.113 1411.95 828.205C1414.76 825.734 1417.18 822.227 1419.48 817.409C1420.97 814.268 1422.23 811.005 1423.36 807.681C1423.42 807.528 1423.48 807.345 1423.51 807.162C1424.98 802.801 1426.21 798.38 1427.4 794.019C1429.2 787.523 1431.07 780.783 1433.67 774.41C1434.77 771.696 1436.06 769.012 1437.25 766.42C1438.75 763.248 1440.25 759.985 1441.53 756.661C1441.75 756.112 1441.93 755.563 1442.11 755.014C1442.21 754.862 1442.27 754.679 1442.3 754.496C1443.4 751.263 1444.29 747.97 1444.9 744.615C1445.05 745.012 1445.14 745.408 1445.2 745.805L1445.17 745.835Z" fill="#453239"/>
<path d="M1424.07 807.621C1424.07 807.621 1423.94 807.774 1423.85 807.774H1423.79C1423.79 807.774 1423.76 807.774 1423.73 807.774C1423.61 807.743 1423.42 807.682 1423.3 807.652C1415.44 805.182 1406.87 805.334 1399.1 807.987C1399.1 807.804 1399.1 807.591 1399.1 807.408C1406.93 804.785 1415.56 804.663 1423.45 807.133C1423.61 807.164 1423.76 807.225 1423.91 807.286C1423.91 807.286 1423.94 807.286 1423.97 807.316C1424.07 807.377 1424.13 807.499 1424.1 807.621H1424.07Z" fill="#453239"/>
<path d="M1442.61 754.863C1442.61 754.863 1442.61 754.955 1442.61 754.985C1442.61 754.985 1442.61 755.016 1442.61 755.046C1442.61 755.046 1442.58 755.046 1442.58 755.107C1442.55 755.107 1442.48 755.168 1442.42 755.168C1442.36 755.168 1442.27 755.168 1442.21 755.107L1442.06 755.016C1434.5 749.74 1429.05 741.719 1426.85 732.814C1427.03 732.875 1427.25 732.936 1427.46 733.028C1429.67 741.658 1434.96 749.374 1442.27 754.528C1442.36 754.589 1442.45 754.65 1442.55 754.711C1442.61 754.741 1442.64 754.802 1442.67 754.894L1442.61 754.863Z" fill="#453239"/>
<path d="M1416.45 787.921C1416.45 787.921 1416.39 788.196 1416.23 788.226C1410.73 788.897 1404.64 789.659 1399.1 791.764C1399.1 791.581 1399.1 791.398 1399.1 791.215C1404.64 789.11 1410.67 788.379 1416.17 787.708C1416.33 787.708 1416.48 787.799 1416.48 787.952L1416.45 787.921Z" fill="#453239"/>
<path d="M1415.32 780.907C1415.32 780.907 1415.26 781.182 1415.11 781.212C1410 781.853 1404.4 782.523 1399.2 784.292C1399.2 784.109 1399.2 783.926 1399.2 783.743C1404.37 781.944 1409.94 781.304 1415.02 780.663C1415.17 780.663 1415.32 780.755 1415.32 780.907Z" fill="#453239"/>
<path d="M1393.32 726.347C1393.32 726.347 1397.94 768.432 1400.81 771.298C1405.62 776.117 1411.98 766.785 1417.64 757.057C1423.3 747.329 1425.69 734.551 1424.28 732.569C1422.87 730.586 1414.73 723.511 1414.73 723.511L1393.32 726.347Z" fill="#FF9E89"/>
<path d="M1255.49 278.175L1235.48 310.836C1235.48 310.836 1207.28 288.269 1194.09 269.666C1180.88 251.064 1169.19 233.041 1172.16 227.338C1173.44 224.837 1176.23 221.391 1179.32 218.647C1179.59 218.372 1179.9 218.128 1180.17 217.915C1181 217.213 1181.88 216.542 1182.74 215.994C1185.68 214.072 1188.58 213.157 1190.6 214.53C1192.32 215.719 1199.96 222.794 1209.48 231.882C1209.54 231.943 1209.6 232.004 1209.69 232.065C1209.79 232.187 1209.91 232.278 1210.03 232.37C1227.87 249.448 1251.88 273.234 1255.52 278.175H1255.49Z" fill="#FFCDAB"/>
<path d="M1234.53 192.478L1209.85 231.817L1209.69 232.031L1209.48 232.397L1206.27 237.52L1201.16 233.922L1200.61 233.556L1179.38 218.643L1179.32 218.582L1180.23 217.881L1182.8 215.959L1224.68 184.732L1234.6 192.447L1234.53 192.478Z" fill="#FFCDAB"/>
<path d="M1234.1 192.542C1234.1 192.542 1246.34 193.426 1248.39 188.974C1250.41 184.521 1249.34 180.099 1249.34 180.099C1253.04 176.958 1256.71 173.695 1260.29 170.402C1262.4 168.481 1264.48 166.529 1266.5 164.516C1268.58 162.442 1271.37 160.216 1272.59 157.472C1272.77 157.045 1272.87 156.526 1272.68 156.069C1272.13 154.696 1270.23 154.727 1269.1 155.184C1267.21 155.947 1265.46 157.289 1263.72 158.386C1262.4 159.21 1261.12 160.033 1259.8 160.887C1256.99 162.686 1254.17 164.486 1251.39 166.315C1250.44 166.925 1249.49 167.535 1248.57 168.145L1247.84 167.322C1247.84 167.322 1264.57 146.249 1261.64 143.809C1258.7 141.37 1253.32 148.902 1251.05 151.769C1248.64 154.849 1241.88 161.71 1241.88 161.71C1241.88 161.71 1240.1 159.545 1237.87 160.552C1235.63 161.527 1224.9 166.376 1223.58 168.816C1222.27 171.256 1224.07 185.223 1224.07 185.223L1234.1 192.511V192.542Z" fill="#FFCDAB"/>
<path d="M1229.58 177.262C1231.38 178.726 1238.11 176.896 1239.4 175.799C1240.65 174.731 1240.59 163.143 1240.56 160.825C1240.56 160.673 1240.44 160.551 1240.29 160.551C1240.13 160.551 1240.01 160.673 1240.01 160.825C1240.07 166.07 1239.83 174.701 1239.03 175.372C1237.93 176.317 1231.48 178.147 1229.88 176.836C1228.6 175.707 1227.74 168.815 1227.53 166.253C1227.53 166.101 1227.38 166.009 1227.25 166.009C1227.1 166.009 1227.01 166.162 1227.01 166.284C1227.04 166.68 1227.83 175.707 1229.55 177.201C1229.55 177.201 1229.55 177.201 1229.58 177.201V177.262Z" fill="#ED8472"/>
<path d="M1234.36 177.325C1234.36 177.325 1234.48 177.386 1234.57 177.386C1234.72 177.386 1234.82 177.233 1234.78 177.081L1232.4 163.479C1232.4 163.479 1232.25 163.236 1232.09 163.266C1231.94 163.266 1231.85 163.418 1231.88 163.571L1234.26 177.172C1234.26 177.172 1234.29 177.294 1234.36 177.325Z" fill="#ED8472"/>
<path d="M1249.34 180.131C1249.34 180.131 1245.73 167.78 1243.52 167.017C1241.32 166.255 1238.57 168.603 1238.29 171.622C1237.99 174.641 1240.34 188.517 1240.34 188.517L1249.34 180.131Z" fill="#FFCDAB"/>
<path d="M1240.62 185.283C1240.62 185.283 1240.77 185.344 1240.87 185.344C1241.02 185.314 1241.08 185.161 1241.05 185.009C1241.05 184.917 1238.17 174.701 1238.11 172.688C1238.05 170.584 1239.58 167.504 1242.61 167.23C1245.12 166.986 1248.12 176.531 1249.1 180.221C1249.13 180.373 1249.28 180.434 1249.4 180.404C1249.55 180.373 1249.62 180.221 1249.58 180.099C1249.22 178.696 1245.94 166.406 1242.55 166.742C1239.21 167.047 1237.5 170.432 1237.56 172.749C1237.62 174.823 1240.41 184.795 1240.5 185.192C1240.5 185.253 1240.53 185.283 1240.59 185.314L1240.62 185.283Z" fill="#ED8472"/>
<path d="M1231.38 179.614C1231.38 179.614 1231.56 179.706 1231.65 179.645C1235.81 177.723 1238.81 178.943 1238.84 178.943C1238.97 179.004 1239.12 178.943 1239.18 178.791C1239.24 178.669 1239.18 178.516 1239.03 178.455C1238.9 178.394 1235.78 177.144 1231.41 179.157C1231.29 179.218 1231.23 179.37 1231.29 179.492C1231.29 179.523 1231.32 179.553 1231.35 179.584L1231.38 179.614Z" fill="#ED8472"/>
<path d="M1250.07 170.524C1250.07 170.524 1250.29 170.616 1250.38 170.524C1250.5 170.433 1250.53 170.28 1250.47 170.158C1250.35 169.975 1247.78 165.98 1245.61 164.547C1245.48 164.455 1245.33 164.486 1245.24 164.608C1245.15 164.73 1245.18 164.882 1245.3 164.974C1247.41 166.377 1250.01 170.402 1250.04 170.433C1250.04 170.433 1250.07 170.463 1250.1 170.494L1250.07 170.524Z" fill="#ED8472"/>
<path d="M1210 232.37C1209.82 232.37 1209.66 232.37 1209.48 232.4C1206.94 232.522 1203.91 232.919 1201.13 233.925C1199.39 234.535 1197.73 235.358 1196.33 236.517C1196.3 236.517 1196.23 236.578 1196.2 236.578C1196.11 236.578 1196.02 236.578 1195.96 236.487C1195.87 236.365 1195.87 236.212 1195.96 236.09C1197.34 234.993 1198.9 234.169 1200.55 233.559C1203.52 232.431 1206.73 232.004 1209.42 231.882C1209.51 231.882 1209.66 231.882 1209.76 231.851L1209.6 232.065C1209.6 232.065 1209.82 232.278 1209.94 232.37H1210Z" fill="#ED8472"/>
<path d="M1363.43 350.238C1362.94 350.634 1380.34 370.152 1382.3 372.195C1387.23 377.318 1392.37 382.411 1398.45 386.193C1401.3 387.961 1403.59 389.273 1406.96 388.236C1410.2 387.23 1412.93 384.454 1414.55 381.557C1415.86 379.27 1416.75 376.708 1417.54 374.208C1418 372.714 1421.03 364.785 1420.14 363.717L1391.11 328.403L1363.4 350.238H1363.43Z" fill="#FFCDAB"/>
<path d="M1398.73 356.61L1416.75 320.289L1430.61 320.502C1430.61 320.502 1422.44 356.945 1419.69 367.466C1416.94 378.018 1410.45 383.995 1410.45 383.995L1398.73 356.61Z" fill="#FFCDAB"/>
<path d="M1405.99 359.784C1405.99 359.784 1405.95 359.784 1405.92 359.784C1405.77 359.784 1405.65 359.662 1405.65 359.509C1405.77 355.148 1404.24 344.658 1404.24 344.536C1404.24 344.383 1404.33 344.261 1404.46 344.231C1404.46 344.231 1404.73 344.322 1404.76 344.444C1404.76 344.536 1406.29 355.087 1406.17 359.509C1406.17 359.631 1406.08 359.753 1405.95 359.753L1405.99 359.784Z" fill="#ED8472"/>
<path d="M1435.56 290.862C1435.62 295.528 1430.63 320.504 1430.63 320.504L1416.75 320.321C1416.75 320.321 1412.52 318.217 1410.38 311.783C1408.24 305.348 1404.75 300.804 1405.67 298.73C1406.01 297.998 1408.67 294.918 1412.16 291.35C1412.28 291.198 1412.4 291.076 1412.55 290.954C1414.21 289.246 1416.04 287.447 1417.88 285.708C1418 285.587 1418.15 285.465 1418.28 285.343C1420.17 283.543 1422.07 281.896 1423.78 280.494C1423.9 280.372 1424.06 280.28 1424.18 280.158C1426.81 278.054 1429.01 276.743 1430.05 276.956C1433.94 277.719 1435.53 286.166 1435.56 290.832V290.862Z" fill="#FFCDAB"/>
<path d="M1429.48 288.363C1429.48 288.363 1429.48 288.637 1429.32 288.698H1429.26C1429.26 288.698 1429.02 288.668 1428.99 288.546C1427.92 285.832 1425.29 282.386 1423.76 280.525C1423.88 280.403 1424.03 280.312 1424.15 280.19C1425.74 282.111 1428.38 285.527 1429.45 288.363H1429.48Z" fill="#ED8472"/>
<path d="M1423.38 293.306C1423.38 293.306 1423.38 293.58 1423.23 293.641H1423.17C1423.17 293.641 1422.92 293.611 1422.89 293.489C1421.88 290.897 1419.44 287.634 1417.88 285.712C1418 285.59 1418.15 285.468 1418.27 285.346C1419.87 287.268 1422.34 290.592 1423.38 293.306Z" fill="#ED8472"/>
<path d="M1416.78 297.818C1416.78 297.818 1416.78 298.092 1416.62 298.153C1416.62 298.153 1416.61 298.153 1416.59 298.153C1416.59 298.153 1416.35 298.092 1416.29 298.001C1415.46 295.836 1413.69 293.274 1412.19 291.383C1412.31 291.231 1412.43 291.109 1412.59 290.987C1414.09 292.939 1415.95 295.592 1416.81 297.848L1416.78 297.818Z" fill="#ED8472"/>
<path d="M1350.81 368.896L1364.58 383.321C1364.58 383.321 1302.45 413.939 1272.68 395.428C1272.68 395.428 1251.24 359.381 1251.33 340.87C1251.45 322.39 1262.52 273.749 1262.52 273.749L1285.44 278.659L1328.42 279.238C1328.42 279.238 1340.14 278.049 1357.64 281.891C1357.64 281.891 1350.42 320.072 1349.74 335.076C1349.22 347.335 1349.28 361.089 1349.35 365.724C1349.35 366.761 1349.35 367.341 1349.35 367.341L1350.81 368.866V368.896Z" fill="#FF7878"/>
<path d="M1357.64 281.917C1357.64 281.917 1365.29 281.277 1376.12 297.196C1386.95 313.145 1395 325.374 1395 325.374L1360.3 352.637L1345.38 342.299C1345.38 342.299 1347.76 291.188 1357.64 281.887V281.917Z" fill="#FF7878"/>
<path d="M1222.3 301.347C1222.3 301.347 1234.2 285.672 1244.6 265.27L1262.56 273.748L1252.68 335.167L1222.3 301.347Z" fill="#FF7878"/>
<path d="M1349.66 317.086C1349.66 317.086 1350.33 335.17 1349.53 345.417" stroke="#3A272E" stroke-width="0.26" stroke-linecap="round" stroke-linejoin="round"/>
<path d="M1353.96 322.117L1349.99 342.427" stroke="#3A272E" stroke-width="0.26" stroke-linecap="round" stroke-linejoin="round"/>
<path d="M1357.18 350.482L1392.49 321.938" stroke="#3A272E" stroke-width="0.26" stroke-linecap="round" stroke-linejoin="round"/>
<path d="M1259.87 300.923C1259.87 300.923 1253.14 324.314 1251.7 333.92" stroke="#3A272E" stroke-width="0.26" stroke-linecap="round" stroke-linejoin="round"/>
<path d="M1250.56 308.637L1252.28 329.893" stroke="#3A272E" stroke-width="0.26" stroke-linecap="round" stroke-linejoin="round"/>
<path d="M1226.24 305.315L1248.85 267.744" stroke="#3A272E" stroke-width="0.26" stroke-linecap="round" stroke-linejoin="round"/>
<g style="mix-blend-mode:multiply" opacity="0.33">
<path d="M1350.81 368.901C1349.62 371.28 1348.06 373.537 1346.93 375.092C1344.08 378.965 1340.44 382.32 1336.25 384.698C1333.16 386.467 1329.33 387.748 1326.03 386.406C1325.6 386.223 1325.14 385.949 1324.96 385.522C1324.75 385.064 1324.9 384.546 1325.11 384.058C1326.24 381.374 1328.6 379.331 1331.17 377.867C1333.71 376.403 1336.49 375.397 1339.15 374.116C1342.06 372.713 1344.81 370.884 1347.14 368.657C1347.66 368.139 1348.45 366.95 1349.28 365.73C1349.28 366.767 1349.28 367.346 1349.28 367.346L1350.75 368.871L1350.81 368.901Z" fill="#FF7878"/>
</g>
<path d="M1270.73 209.899L1261.15 260.309C1261.15 260.309 1287.52 268.543 1298.11 265.828L1304.1 212.979L1270.73 209.929V209.899Z" fill="#3A272E"/>
<path d="M1321.18 172.543C1321.18 172.543 1328.67 174.281 1329.01 174.403C1337.11 177.208 1343.54 182.789 1347.73 190.291C1350.79 195.75 1352.53 201.849 1353.79 207.979C1356.17 219.537 1356.88 231.43 1355.9 243.202C1355.74 245.184 1352.01 272.691 1351.61 272.63L1317.9 268.513L1321.18 172.543Z" fill="#3A272E"/>
<path d="M1292.35 297.419C1306.67 303.885 1328.45 279.274 1328.45 279.274C1328.45 279.274 1326.59 276.621 1325.12 269.973C1322.76 259.117 1328.15 241.459 1328.15 241.459L1302.02 256.067L1292.66 261.495C1292.42 263.996 1291.38 267.228 1290.06 270.431C1287.46 276.926 1283.85 283.33 1283.85 283.33C1283.85 283.33 1278.01 290.954 1292.35 297.419Z" fill="#FFCDAB"/>
<path d="M1290.06 270.432C1291.26 271.255 1292.85 271.896 1294.9 272.323C1307.38 274.854 1320.99 251.372 1320.99 251.372L1302 256.038L1292.63 261.466C1292.39 263.967 1291.35 267.199 1290.03 270.402L1290.06 270.432Z" fill="#FF7878"/>
<g style="mix-blend-mode:multiply" opacity="0.35">
<path d="M1290.06 270.432C1291.26 271.255 1292.85 271.896 1294.9 272.323C1307.38 274.854 1320.99 251.372 1320.99 251.372L1302 256.038L1292.63 261.466C1292.39 263.967 1291.35 267.199 1290.03 270.402L1290.06 270.432Z" fill="#FF7878"/>
</g>
<path d="M1333.41 226.883C1333.41 226.883 1332.49 232.464 1328.97 240.24C1328.08 242.223 1327.04 244.327 1325.79 246.523C1324.96 247.986 1324.02 249.389 1322.98 250.762C1316.15 259.697 1304.9 266.375 1293.45 262.868C1285.84 260.551 1280.85 256.769 1278.07 249.969C1277.61 248.84 1277.21 247.62 1276.84 246.279C1275.47 241.003 1274.03 234.629 1273.78 229.231C1273.72 227.707 1273.69 226.151 1273.72 224.627C1273.78 221.882 1273.97 219.137 1274.18 216.393C1274.3 215.203 1274.43 214.014 1274.55 212.855C1274.55 212.733 1274.55 212.642 1274.58 212.52C1275.86 200.87 1277.67 189.038 1288.44 182.695C1293 180.041 1299.51 179.767 1304.62 180.499C1340.08 185.622 1333.35 226.883 1333.35 226.883H1333.41Z" fill="#3A272E"/>
<path d="M1331.23 227.251C1331.63 225.665 1332.3 223.835 1334.02 223.287C1335.27 222.89 1336.62 223.348 1337.6 224.049C1340.47 226.062 1341.21 229.904 1340.17 233.198C1339.74 234.601 1338.97 236.003 1337.69 236.949C1336.4 237.894 1334.54 238.291 1333.16 237.65C1332.21 237.193 1331.6 236.369 1331.2 235.485" stroke="#3A272E" stroke-width="0.25" stroke-linecap="round" stroke-linejoin="round"/>
<path d="M1336.18 223.319C1336.18 223.319 1332.08 227.71 1332.3 236.981" stroke="#3A272E" stroke-width="0.25" stroke-linecap="round" stroke-linejoin="round"/>
<path d="M1331.94 219.198L1316.43 217.307L1316.18 192.27C1303.76 196.357 1295.01 215.081 1295.01 215.081L1278.34 212.885C1280.18 205.749 1288.96 192.484 1288.96 192.484C1284.43 195.442 1277.55 208.128 1276.11 212.489L1268.06 211.391C1265.71 211.086 1271.92 198.644 1272.5 197.485C1276.75 188.977 1282.04 181.505 1290.64 176.9C1299.73 172.051 1310.52 170.923 1320.53 172.326C1322.52 172.631 1324.29 173.759 1325.45 175.406C1339.13 194.893 1331.94 219.198 1331.94 219.198Z" fill="#3A272E"/>
<path d="M1325.73 230.019C1325.85 230.721 1326.13 231.575 1326.83 231.666C1327.23 231.697 1327.6 231.453 1327.9 231.178C1329.13 230.111 1329.98 228.647 1330.72 227.183C1332.43 223.768 1334.08 220.23 1334.82 216.479C1335.12 214.985 1334.88 213.155 1333.96 211.905C1333.26 210.929 1331.97 210.471 1330.75 210.593C1329.56 210.685 1328.42 211.295 1327.54 212.088C1322.61 216.418 1324.87 224.5 1325.73 230.019Z" fill="#3A272E"/>
<path d="M1278.74 222.431C1278.53 223.467 1279.2 224.474 1280.24 224.657C1281.25 224.84 1282.26 224.169 1282.45 223.101C1282.66 222.065 1281.99 221.058 1280.95 220.875C1279.94 220.692 1278.93 221.363 1278.74 222.431Z" fill="#3A272E"/>
<path d="M1300.96 223.617C1300.53 224.745 1301.08 225.996 1302.18 226.423C1303.28 226.85 1304.51 226.27 1304.94 225.142C1305.36 224.013 1304.81 222.763 1303.71 222.336C1302.61 221.909 1301.39 222.489 1300.96 223.617Z" fill="#3A272E"/>
<path d="M1296.26 246.825C1296.26 246.825 1292.93 248.171 1290.24 247.437" stroke="#3A272E" stroke-width="0.19" stroke-linecap="round" stroke-linejoin="round"/>
<path d="M1299.6 242.194C1299.6 242.194 1294.31 246.982 1286.02 244.42" stroke="#3A272E" stroke-width="0.23" stroke-linecap="round" stroke-linejoin="round"/>
<path d="M1302.05 239.356C1301.84 246.706 1307.65 252.805 1315.02 253.018C1322.39 253.232 1328.51 247.438 1328.73 240.088C1328.94 232.739 1323.13 226.639 1315.75 226.426C1308.38 226.213 1302.26 232.007 1302.05 239.356Z" fill="url(#paint0_linear_1_1295)"/>
<path d="M1285.62 238.229C1285.47 243.474 1282.29 247.926 1277.79 249.97C1277.33 248.841 1276.93 247.621 1276.57 246.28C1275.19 241.004 1273.75 234.63 1273.51 229.232C1273.45 227.708 1273.42 226.152 1273.45 224.628C1280.42 225.207 1285.81 231.154 1285.59 238.198L1285.62 238.229Z" fill="url(#paint1_linear_1_1295)"/>
<path d="M1297.98 215.846C1299.42 215.023 1301.01 214.626 1302.67 214.413C1304.32 214.199 1306.06 214.291 1307.71 214.596C1309.4 214.962 1310.83 215.45 1312.24 216.212C1313.59 217.005 1314.9 217.889 1315.42 219.505C1315.54 219.841 1315.27 220.176 1314.84 220.268C1314.63 220.298 1314.41 220.268 1314.23 220.207L1313.83 220.024C1312.85 219.597 1311.57 219.14 1310.34 218.774C1309.12 218.438 1307.74 218.042 1306.52 217.798C1304.01 217.249 1301.35 217.005 1298.38 216.791H1298.29C1297.89 216.761 1297.62 216.486 1297.68 216.181C1297.68 216.029 1297.8 215.876 1297.95 215.785L1297.98 215.846Z" fill="#3A272E"/>
<path d="M1285.71 216.149C1285.68 216.484 1285.34 216.759 1284.98 216.698H1284.88C1281.95 216.362 1279.32 216.088 1276.78 216.21C1275.86 216.24 1274.88 216.332 1273.9 216.423C1274.02 215.234 1274.15 214.045 1274.27 212.886C1274.27 212.764 1274.27 212.672 1274.3 212.55C1275 212.428 1275.71 212.367 1276.44 212.337C1278.12 212.337 1279.81 212.55 1281.37 213.13C1282.9 213.679 1284.36 214.441 1285.53 215.661C1285.65 215.783 1285.74 215.966 1285.71 216.149Z" fill="#3A272E"/>
<path d="M1286.94 217.738C1288.84 220.696 1289.69 224.447 1289.48 227.924C1289.39 229.235 1289.11 230.547 1288.5 231.705C1287.89 232.925 1286.76 233.749 1286.17 234.968C1285.19 236.951 1287.61 239.116 1289.05 240.214" stroke="#3A272E" stroke-width="0.23" stroke-linecap="round" stroke-linejoin="round"/>
<path d="M1275.28 202.757L1278.34 203.153C1280.05 203.367 1281.76 202.757 1282.89 201.507L1286.66 197.359C1288.03 197.542 1286.84 204.19 1288.22 204.251C1299.26 204.77 1309.48 201.415 1316.91 195.499C1316.97 207.148 1320.71 216.114 1326.76 217.151L1336.25 218.798L1336.58 216.816H1336.98C1342.64 217.456 1346.8 222.549 1346.22 228.191V228.435C1345.61 234.076 1340.5 238.224 1334.84 237.644L1331.38 237.278L1331.05 240.511C1330.71 243.713 1329.85 246.702 1328.6 249.477L1328.39 277.198C1328.32 287.139 1316.52 292.049 1306.54 291.988C1296.57 291.927 1291.58 286.895 1291.67 276.954L1291.77 265.121C1279.07 260.852 1270.57 248.257 1272 234.412L1275.31 202.696L1275.28 202.757Z" fill="#FFCDAB"/>
<path opacity="0.5" d="M1296.23 263.569L1296.9 263.63C1312.87 265.276 1327.16 253.718 1328.81 237.799L1328.87 237.068L1331.35 237.312L1331.01 240.544C1330.13 248.93 1325.75 256.128 1319.51 260.854C1318.22 267.716 1312.2 272.87 1304.95 272.809C1299.47 272.778 1294.73 269.759 1292.22 265.337C1284.73 262.959 1278.64 257.683 1275.12 250.943C1279.77 257.805 1287.3 262.654 1296.23 263.569Z" fill="#ED8472"/>
<path d="M1339.04 230.963C1339.37 230.963 1339.68 230.811 1339.89 230.506C1340.2 230.048 1340.08 229.438 1339.59 229.133L1336.65 227.212L1340.08 223.431C1340.44 223.034 1340.41 222.394 1340.01 222.028C1339.62 221.662 1338.97 221.692 1338.61 222.089L1334.42 226.755C1334.23 226.968 1334.14 227.273 1334.17 227.548C1334.2 227.822 1334.39 228.097 1334.63 228.249L1338.55 230.811C1338.7 230.933 1338.91 230.963 1339.1 230.963H1339.04Z" fill="#ED8472"/>
<path d="M1294.61 251.759C1294.86 251.759 1295.1 251.668 1295.32 251.485C1295.71 251.119 1295.74 250.479 1295.38 250.082C1292.59 247.124 1288.86 248.74 1288.71 248.801C1288.22 249.015 1287.97 249.625 1288.22 250.113C1288.43 250.601 1289.04 250.845 1289.53 250.601C1289.66 250.54 1292.13 249.503 1293.91 251.424C1294.09 251.637 1294.37 251.729 1294.64 251.729L1294.61 251.759Z" fill="#ED8472"/>
<path d="M1306.79 230.263C1306.79 230.263 1302.14 234.166 1296.91 236.24C1291.67 238.314 1298.13 246.273 1306.21 243.559C1314.28 240.845 1310.98 228.281 1306.79 230.293V230.263Z" fill="white"/>
<path d="M1308.14 210.719C1307.49 210.871 1306.73 210.627 1305.96 210.444C1305.2 210.262 1304.43 210.079 1303.79 209.957C1303.12 209.835 1302.35 209.713 1301.59 209.591C1300.82 209.469 1300.03 209.408 1299.48 209.011C1298.96 208.645 1298.87 207.913 1299.69 207.212C1300.49 206.511 1302.32 205.931 1304.56 206.358C1306.76 206.785 1308.23 208.005 1308.69 208.95C1309.18 209.926 1308.78 210.566 1308.17 210.688L1308.14 210.719Z" fill="#3A272E"/>
<path d="M1275.71 210.352C1276.38 210.443 1277.12 210.138 1277.85 209.894C1278.59 209.62 1279.32 209.406 1279.99 209.193C1280.63 209.01 1281.4 208.827 1282.16 208.644C1282.93 208.461 1283.69 208.308 1284.21 207.881C1284.7 207.485 1284.73 206.753 1283.82 206.082C1282.96 205.442 1281.06 205.045 1278.89 205.655C1276.72 206.296 1275.37 207.637 1275.01 208.613C1274.61 209.62 1275.07 210.23 1275.68 210.321L1275.71 210.352Z" fill="#3A272E"/>
<path d="M1301.28 220.352C1301.25 221.419 1302.08 222.303 1303.12 222.334C1304.19 222.364 1305.07 221.541 1305.1 220.504C1305.13 219.437 1304.31 218.552 1303.27 218.522C1302.2 218.491 1301.31 219.315 1301.28 220.352Z" fill="#3E211B"/>
<path d="M1276.26 219.652C1276.23 220.72 1277.05 221.604 1278.09 221.635C1279.16 221.665 1280.05 220.842 1280.08 219.805C1280.11 218.738 1279.28 217.853 1278.24 217.823C1277.17 217.792 1276.29 218.616 1276.26 219.652Z" fill="#3E211B"/>
<path d="M1292.85 231.611C1293.37 231.611 1293.79 231.214 1293.85 230.696C1293.89 230.147 1293.49 229.659 1292.94 229.629L1288.87 229.293C1288.38 229.263 1287.95 229.019 1287.61 228.653C1287.31 228.287 1287.15 227.799 1287.19 227.341L1287.37 225.115C1287.37 224.81 1287.67 224.566 1287.98 224.597C1289.08 224.688 1290.15 224.353 1291.01 223.621C1291.87 222.919 1292.36 221.913 1292.45 220.815L1292.81 216.302C1292.84 215.753 1292.45 215.265 1291.9 215.235C1291.35 215.174 1290.86 215.6 1290.83 216.149L1290.46 220.663C1290.43 221.242 1290.15 221.761 1289.72 222.127C1289.3 222.493 1288.72 222.676 1288.16 222.615C1286.73 222.493 1285.5 223.56 1285.38 224.963L1285.2 227.189C1285.11 228.195 1285.44 229.202 1286.08 229.964C1286.76 230.726 1287.67 231.214 1288.68 231.306L1292.75 231.641H1292.81L1292.85 231.611Z" fill="#ED8472"/>
<path d="M391.615 658.403C391.615 658.403 388.893 662.428 383.508 667.796L383.111 668.223C381.765 669.534 380.266 670.967 378.644 672.401C378.522 672.523 378.338 672.644 378.216 672.766C377.818 673.102 377.39 673.468 376.962 673.834C375.952 674.688 374.973 675.603 374.025 676.578C373.902 676.67 373.75 676.822 373.627 676.975C370.017 680.665 366.897 685.026 364.143 689.57C364.021 689.753 363.929 689.936 363.807 690.119C361.329 694.297 359.126 698.597 357.199 702.713C356.74 703.628 356.312 704.604 355.669 705.397C353.773 707.715 349.796 707.684 347.073 707.379C343.616 707.013 339.914 705.794 337.344 703.354C336.916 702.927 336.518 702.5 336.151 701.982C335.784 701.494 335.478 700.945 335.172 700.365C334.04 697.987 333.704 695.303 333.735 692.68C333.735 684.568 337.191 677.737 341.811 671.333C345.91 665.63 350.713 659.958 352.182 652.914C354.384 642.393 359.035 632.176 366.713 624.522C368.059 623.15 369.528 621.869 371.272 621.076C372.342 620.588 373.566 620.405 374.79 620.405C375.004 620.405 375.249 620.405 375.493 620.435C379.256 620.71 383.417 622.662 386.445 624.003C388.312 624.796 390.147 625.681 391.952 626.596C392.074 626.657 392.166 626.718 392.289 626.779C393.206 627.266 394.124 627.754 395.011 628.273C389.749 640.807 391.524 658.403 391.524 658.403H391.615Z" fill="#5788FF"/>
<path d="M375.552 620.465L367.2 630.59L366.955 630.895C366.955 630.895 366.833 631.017 366.802 631.078C364.875 633.396 362.886 635.835 361.326 638.458C358.94 642.422 357.471 646.905 356.034 651.236C354.993 654.407 353.923 657.64 352.515 660.72C350.619 664.837 348.049 668.649 345.602 672.339C344.684 673.742 343.735 675.175 342.818 676.578C342.695 676.822 342.542 677.005 342.389 677.249C342.389 677.279 342.359 677.34 342.298 677.401C339.422 682.067 336.087 688.258 335.751 695.089C335.598 698.199 336.179 701.097 337.372 703.414C336.944 702.987 336.546 702.56 336.179 702.042C335.414 699.968 335.078 697.59 335.169 695.028C335.506 687.983 338.932 681.671 341.9 676.944C342.94 675.267 344.041 673.62 345.112 672.003C347.559 668.344 350.099 664.532 351.965 660.446C353.372 657.426 354.443 654.194 355.483 651.053C356.921 646.692 358.389 642.178 360.806 638.153C362.427 635.439 364.508 632.938 366.496 630.529L374.848 620.435C375.062 620.435 375.307 620.435 375.552 620.465Z" fill="#FFDAD7"/>
<path d="M364.142 689.598C364.02 689.781 363.928 689.964 363.806 690.147C359.217 683.163 351.599 678.345 343.309 677.125C343.003 677.064 342.636 677.125 342.483 677.247C342.483 677.308 342.452 677.338 342.452 677.369H341.871C341.871 677.156 341.963 676.942 342.115 676.82C342.299 676.668 342.513 676.607 342.758 676.576C342.972 676.515 343.186 676.546 343.37 676.576C351.722 677.796 359.4 682.645 364.111 689.598H364.142Z" fill="#FFDAD7"/>
<path d="M376.411 631.841C373.474 631.902 370.262 631.658 366.56 631.079L366.652 630.53C371.822 631.353 376.013 631.506 379.868 631.079C384.609 630.53 388.831 628.974 392.135 626.565L392.472 627.023C389.106 629.462 384.762 631.079 379.929 631.627C378.797 631.749 377.604 631.841 376.38 631.871L376.411 631.841Z" fill="#FFDAD7"/>
<path d="M383.504 667.822L383.106 668.249C380.965 665.566 378.273 663.309 375.244 661.693C375.091 661.601 375.061 661.449 375.122 661.296C375.183 661.144 375.367 661.083 375.519 661.174C378.609 662.821 381.332 665.108 383.504 667.822Z" fill="#FFDAD7"/>
<path d="M378.641 672.399C378.641 672.399 378.335 672.643 378.213 672.765C376.102 670.234 373.502 668.069 370.596 666.514C370.443 666.422 370.412 666.27 370.473 666.117C370.534 665.965 370.718 665.904 370.871 665.995C373.838 667.581 376.5 669.777 378.672 672.399H378.641Z" fill="#FFDAD7"/>
<path d="M374.028 676.582C374.028 676.582 373.753 676.826 373.63 676.979C371.581 674.539 369.072 672.527 366.258 671.002C366.105 670.91 366.074 670.727 366.135 670.605C366.227 670.453 366.38 670.392 366.533 670.483C369.409 672.008 371.978 674.082 374.028 676.552V676.582Z" fill="#FFDAD7"/>
<path d="M410.216 630.561L394.736 628.274C394.736 628.274 388.25 633.123 388.097 644.711C387.975 655.171 391.462 658.435 391.462 658.435L410.521 656.208L410.185 630.561H410.216Z" fill="#D36259"/>
<path d="M519.91 659.413L401.487 659.016L399.59 625.562L479.345 612.571L479.192 612.358L478.672 611.687L434.557 554.812L434.251 505.134L502.84 522.913C502.84 522.913 537.226 590.919 542.059 624.403C546.923 657.888 519.941 659.382 519.941 659.382L519.91 659.413Z" fill="#3A2932"/>
<path d="M488.308 614.194C488.308 614.194 488.094 614.438 487.941 614.377C486.564 613.92 485.004 613.523 483.352 613.157L482.801 613.036C481.608 612.792 480.384 612.548 479.161 612.334L478.641 611.663C480.078 611.907 481.516 612.182 482.923 612.456L483.505 612.578C485.187 612.944 486.748 613.34 488.155 613.798C488.308 613.859 488.399 614.011 488.338 614.164L488.308 614.194Z" fill="#FFDAD7"/>
<path d="M444.833 627.151C444.833 627.151 444.618 627.029 444.618 626.907C444.618 626.754 444.71 626.602 444.894 626.602C455.601 625.748 466.064 623.217 475.945 619.039C478.607 617.911 481.238 616.538 482.4 614.129C483.746 611.354 482.951 607.725 480.044 603.364C475.884 597.143 470.714 591.318 465.727 585.676C459.242 578.357 452.542 570.764 448.075 562.347C448.014 562.194 448.075 562.042 448.198 561.95C448.32 561.889 448.504 561.95 448.595 562.072C453.031 570.428 459.731 577.991 466.186 585.28C471.203 590.922 476.373 596.777 480.534 603.028C483.563 607.572 484.389 611.384 482.92 614.342C481.666 616.904 478.943 618.337 476.159 619.527C466.217 623.735 455.693 626.297 444.924 627.151C444.924 627.151 444.863 627.151 444.833 627.151Z" fill="#FFDAD7"/>
<path d="M370.625 489.946C370.625 489.946 367.26 568.412 383.412 598.939L322.075 595.645L315.987 624.708C342.113 641.115 373.286 656.698 404.215 660.205C413.301 661.242 423.978 661.821 432.33 657.399C443.955 651.239 443.68 636.235 444.934 624.799C447.381 602.385 447.565 579.818 447.106 557.312C446.892 546.638 446.953 535.964 446.831 525.321C446.831 523.461 447.626 505.103 445.362 504.645L370.625 489.916V489.946Z" fill="#3A2932"/>
<path d="M465.824 536.295L448.539 548.066C448.539 548.066 447.132 627.539 442.329 644.83C437.526 662.152 417.365 661.298 409.748 660.901" stroke="#FFDAD7" stroke-width="0.28" stroke-linecap="round" stroke-linejoin="round"/>
<path d="M382.92 598.136C382.92 598.136 390.384 605.791 392.373 607.316" stroke="#FFDAD7" stroke-width="0.28" stroke-linecap="round" stroke-linejoin="round"/>
<path d="M382.093 493.082C380.625 526.811 379.217 561.18 388.242 593.719C388.854 595.884 389.497 598.171 388.823 600.306C388.12 602.593 386.009 604.209 383.745 604.941C381.481 605.704 379.034 605.704 376.648 605.673C358.109 605.521 339.6 604.21 321.245 601.709" stroke="#FFDAD7" stroke-width="0.28" stroke-linecap="round" stroke-linejoin="round"/>
<path d="M381.976 543.069C398.342 530.871 410.488 513.122 415.933 493.483" stroke="#FFDAD7" stroke-width="0.28" stroke-linecap="round" stroke-linejoin="round"/>
<path d="M297.237 620.71C297.237 620.71 293.658 624.003 287.233 628.059L286.744 628.364C285.153 629.34 283.379 630.408 281.451 631.444C281.299 631.536 281.115 631.597 280.962 631.719C280.503 631.963 280.014 632.207 279.494 632.481C278.331 633.091 277.169 633.762 276.006 634.525C275.853 634.586 275.7 634.677 275.517 634.83C271.172 637.635 267.165 641.173 263.463 645.015C263.31 645.168 263.157 645.32 263.004 645.473C259.639 648.98 256.549 652.7 253.735 656.268C253.092 657.061 252.45 657.884 251.624 658.525C249.238 660.355 245.383 659.44 242.813 658.525C239.509 657.397 236.175 655.353 234.247 652.456C233.911 651.938 233.635 651.419 233.391 650.87C233.146 650.321 232.962 649.712 232.809 649.071C232.259 646.509 232.504 643.795 233.115 641.234C234.951 633.335 239.815 627.449 245.781 622.235C251.073 617.599 257.008 613.147 260.037 606.59C264.534 596.801 271.356 587.927 280.564 582.163C282.186 581.126 283.899 580.211 285.796 579.815C286.958 579.571 288.182 579.662 289.405 579.937C289.62 579.998 289.834 580.059 290.079 580.12C293.688 581.218 297.298 584.054 299.96 586.036C301.581 587.225 303.203 588.506 304.732 589.787C304.824 589.878 304.946 589.939 305.038 590.031C305.834 590.702 306.598 591.403 307.363 592.074C299.409 603.114 297.207 620.679 297.207 620.679L297.237 620.71Z" fill="#5788FF"/>
<path d="M290.108 580.15L279.676 588.14L279.37 588.384C279.37 588.384 279.247 588.475 279.186 588.536C276.769 590.366 274.291 592.318 272.18 594.513C268.968 597.837 266.521 601.863 264.165 605.766C262.452 608.633 260.678 611.53 258.628 614.214C255.844 617.812 252.509 620.953 249.267 624.003C248.043 625.162 246.819 626.351 245.596 627.51C245.412 627.693 245.228 627.876 245.045 628.059C245.014 628.089 244.984 628.15 244.923 628.181C241.068 632.084 236.418 637.391 234.582 643.947C233.756 646.936 233.634 649.894 234.307 652.425C233.97 651.907 233.695 651.388 233.45 650.839C233.175 648.644 233.359 646.234 234.032 643.795C235.928 637.025 240.701 631.627 244.647 627.662C246.024 626.26 247.462 624.887 248.9 623.576C252.112 620.526 255.446 617.385 258.169 613.848C260.219 611.225 261.963 608.298 263.706 605.461C266.092 601.527 268.54 597.471 271.783 594.086C273.985 591.799 276.555 589.817 279.033 587.926L289.435 579.936C289.649 579.997 289.863 580.058 290.108 580.119V580.15Z" fill="#FFDAD7"/>
<path d="M263.497 644.984C263.344 645.137 263.191 645.289 263.038 645.442C260.132 637.635 253.769 631.2 245.998 628.181C245.692 628.059 245.356 628.029 245.172 628.09C245.142 628.12 245.111 628.181 245.111 628.211L244.56 628.09C244.622 627.876 244.744 627.693 244.928 627.571C245.142 627.48 245.356 627.449 245.631 627.48C245.876 627.48 246.059 627.541 246.243 627.602C254.105 630.651 260.499 637.086 263.528 644.923L263.497 644.984Z" fill="#FFDAD7"/>
<path d="M288.399 591.437C285.524 590.827 282.464 589.882 278.977 588.479L279.191 587.961C284.055 589.913 288.093 591.01 291.979 591.437C296.721 591.956 301.187 591.376 304.95 589.791L305.164 590.309C301.34 591.956 296.751 592.535 291.918 592.017C290.755 591.895 289.593 591.712 288.399 591.468V591.437Z" fill="#FFDAD7"/>
<path d="M287.236 628.09L286.746 628.395C285.247 625.315 283.136 622.51 280.567 620.253C280.444 620.131 280.444 619.978 280.536 619.856C280.628 619.734 280.811 619.704 280.934 619.826C283.565 622.144 285.706 624.949 287.236 628.09Z" fill="#FFDAD7"/>
<path d="M281.454 631.448C281.301 631.54 281.118 631.601 280.965 631.723C279.496 628.764 277.416 626.111 274.938 623.916C274.816 623.794 274.816 623.641 274.908 623.519C274.999 623.397 275.183 623.367 275.305 623.489C277.844 625.715 279.925 628.429 281.454 631.448Z" fill="#FFDAD7"/>
<path d="M276.001 634.524C276.001 634.524 275.695 634.676 275.511 634.829C274.073 631.993 272.054 629.462 269.668 627.357C269.546 627.235 269.546 627.052 269.638 626.961C269.76 626.839 269.913 626.808 270.035 626.93C272.483 629.065 274.532 631.657 276.001 634.524Z" fill="#FFDAD7"/>
<path d="M321.654 597.714L307.092 592.042C307.092 592.042 299.688 595.335 296.935 606.558C294.457 616.743 297.149 620.677 297.149 620.677L316.208 622.782L321.654 597.714Z" fill="#FFCDAB"/>
<path d="M355.362 541.334C355.362 541.334 359.095 550.177 372.77 550.055L371.209 531.819C371.209 531.819 358.422 534.685 355.362 541.334Z" fill="#5788FF"/>
<g style="mix-blend-mode:multiply" opacity="0.3">
<path d="M355.362 541.334C355.362 541.334 359.095 550.177 372.77 550.055L371.209 531.819C371.209 531.819 358.422 534.685 355.362 541.334Z" fill="#5788FF"/>
</g>
<path d="M449.061 301.85L445.543 298.617C445.543 298.617 418.652 371.685 413.023 409.866C407.364 448.017 410.515 499.585 410.515 499.585L465.673 513.339C465.673 513.339 458.637 447.102 471.516 396.57C484.396 346.038 486.812 323.41 486.812 323.41L449.092 301.88L449.061 301.85Z" fill="#FFB900"/>
<path d="M337.918 237.47L343.822 201.484L331.28 197.459L314.851 232.255L337.918 237.47Z" fill="#FFCDAB"/>
<path d="M343.827 201.486C343.827 201.486 356.462 198.315 357.013 193.161C357.563 188.007 355.024 183.92 355.024 183.92C357.716 179.499 360.317 175.046 362.825 170.533C364.294 167.88 365.731 165.226 367.108 162.543C368.515 159.768 370.565 156.596 370.902 153.425C370.963 152.906 370.84 152.388 370.534 151.991C369.525 150.802 367.628 151.473 366.649 152.296C364.997 153.699 363.682 155.651 362.305 157.298C361.265 158.578 360.225 159.829 359.185 161.109C356.951 163.854 354.749 166.629 352.515 169.374C351.781 170.289 351.016 171.234 350.282 172.149L349.273 171.539C349.273 171.539 359.093 144.733 355.299 143.269C351.506 141.806 348.6 151.168 347.284 154.797C345.877 158.7 341.38 167.849 341.38 167.849C341.38 167.849 338.871 166.263 336.975 168.002C335.047 169.74 325.869 178.187 325.349 181.084C324.829 183.981 331.315 197.461 331.315 197.461L343.858 201.486H343.827Z" fill="#FFCDAB"/>
<path d="M339.483 167.452C339.483 167.452 344.194 181.236 343.338 182.7C342.451 184.133 336.363 188.22 334.221 187.305C332.08 186.39 328.164 177.272 328.164 177.272" stroke="#3A272E" stroke-width="0.27" stroke-linecap="round" stroke-linejoin="round"/>
<path d="M339.088 185.808L332.143 172.877" stroke="#3A272E" stroke-width="0.27" stroke-linecap="round" stroke-linejoin="round"/>
<path d="M355.028 183.916C355.028 183.916 347.258 172.663 344.78 172.632C342.302 172.632 340.344 175.865 341.048 179.006C341.782 182.147 348.788 195.321 348.788 195.321L355.059 183.885L355.028 183.916Z" fill="#FFCDAB"/>
<path d="M355.028 183.92C355.028 183.92 347.013 171.477 343.801 172.88C340.619 174.283 340.191 178.156 340.956 180.23C341.721 182.303 348.053 191.727 348.053 191.727" stroke="#FFCDAB" stroke-width="0.27" stroke-linecap="round" stroke-linejoin="round"/>
<path d="M344.107 185.932C344.107 185.932 340.559 185.658 336.888 189.104" stroke="#3A272E" stroke-width="0.27" stroke-linecap="round" stroke-linejoin="round"/>
<path d="M352.669 173.735C352.669 173.735 348.662 170.472 345.97 169.74" stroke="#3A272E" stroke-width="0.27" stroke-linecap="round" stroke-linejoin="round"/>
<path d="M445.544 298.611C445.544 298.611 417.276 378.358 414.584 435.629C411.892 492.9 412.534 523.122 412.534 523.122C412.534 523.122 370.164 525.897 355.357 541.328C355.357 541.328 346.914 481.739 359.915 419.649C372.887 357.559 396.718 276.898 396.718 276.898C396.718 276.898 422.11 277.538 445.574 298.611" fill="#5788FF"/>
<path d="M385.124 343.137C385.124 343.137 383.136 341.703 379.71 339.233C379.557 339.142 379.404 339.02 379.251 338.898C364.138 327.95 323.817 298.582 305.523 283.7C305.37 283.548 305.217 283.426 305.064 283.273C300.75 279.766 297.752 277.082 296.682 275.741C292.949 270.922 295.917 260.889 299.098 253.143C299.19 252.96 299.251 252.777 299.343 252.594C301.729 247.013 304.177 242.744 304.177 242.744L335.289 251.283L337.859 252.381L339.603 253.113L396.658 276.93L385.094 343.137H385.124Z" fill="#5788FF"/>
<path d="M312.706 225.482C312.706 225.482 303.467 243.261 300.01 251.19C296.584 259.15 314.144 267.719 314.144 267.719L339.658 264.761L341.861 235.302L312.706 225.512V225.482Z" fill="#5788FF"/>
<path d="M423.76 376.528C423.76 376.528 423.546 376.376 423.546 376.254C423.638 364.635 413.879 325.661 413.787 325.264C413.787 325.142 413.787 325.02 413.909 324.959L429.97 314.225L427.951 286.29C427.951 286.138 428.043 285.986 428.227 285.986C428.38 285.986 428.533 286.108 428.533 286.26L430.552 314.347C430.552 314.347 430.521 314.56 430.429 314.591L414.399 325.295C415.133 328.283 424.219 364.97 424.127 376.223C424.127 376.376 424.005 376.498 423.852 376.498C423.852 376.498 423.821 376.498 423.791 376.498L423.76 376.528Z" fill="#FFDAD7"/>
<path d="M392.864 302.177C392.864 302.177 392.619 301.994 392.65 301.841C394.24 293.455 395.923 284.947 397.667 276.591C397.697 276.438 397.85 276.347 398.003 276.377C398.156 276.408 398.248 276.56 398.217 276.713C396.504 285.069 394.822 293.577 393.231 301.963C393.231 302.116 393.047 302.207 392.894 302.177H392.864Z" fill="#FFDAD7"/>
<path d="M379.338 339.652C379.338 339.652 379.338 339.652 379.308 339.652C379.155 339.591 379.094 339.439 379.155 339.286C380.96 334.407 388.363 314.035 388.424 313.852C388.486 313.7 388.638 313.639 388.791 313.669C388.944 313.73 389.006 313.883 388.975 314.035C388.914 314.249 381.51 334.59 379.705 339.469C379.644 339.591 379.522 339.683 379.369 339.652H379.338Z" fill="#FFDAD7"/>
<path d="M380.139 337.641C380.139 337.641 379.925 337.519 379.925 337.367C379.833 334.043 379.925 318.612 379.925 318.459C379.925 318.307 380.047 318.185 380.2 318.185C380.353 318.185 380.476 318.307 380.476 318.459C380.476 318.612 380.384 334.043 380.476 337.367C380.476 337.519 380.353 337.641 380.2 337.672C380.2 337.672 380.17 337.672 380.139 337.672V337.641Z" fill="#FFDAD7"/>
<path d="M315.55 261.035C315.55 261.035 315.458 261.005 315.397 260.974C315.275 260.852 315.275 260.7 315.397 260.578C326.166 249.63 340.636 252.679 340.789 252.71C340.942 252.74 341.034 252.893 341.003 253.045C340.973 253.198 340.82 253.289 340.667 253.259C340.116 253.137 326.196 250.392 315.826 260.974C315.764 261.035 315.642 261.066 315.581 261.066L315.55 261.035Z" fill="#FFDAD7"/>
<path d="M341.345 240.697C341.345 240.697 341.345 240.697 341.314 240.697L310.569 229.993C310.569 229.993 310.354 229.78 310.385 229.627C310.446 229.475 310.599 229.383 310.752 229.444L341.498 240.148C341.498 240.148 341.712 240.362 341.681 240.514C341.62 240.636 341.498 240.728 341.345 240.697Z" fill="#FFDAD7"/>
<path d="M338.86 238.077C339.587 238.077 340.176 237.489 340.176 236.765C340.176 236.041 339.587 235.454 338.86 235.454C338.134 235.454 337.545 236.041 337.545 236.765C337.545 237.489 338.134 238.077 338.86 238.077Z" fill="#FFDAD7"/>
<path d="M305.549 283.696C305.396 283.544 305.243 283.422 305.09 283.269C306.069 278.756 306.712 273.785 306.192 268.753C305.58 262.41 303.01 256.829 299.125 253.139C299.217 252.956 299.278 252.773 299.37 252.59C303.438 256.402 306.1 262.197 306.773 268.692C307.293 273.938 306.59 279.061 305.549 283.696Z" fill="#FFDAD7"/>
<path d="M408.984 523.574C408.984 523.574 408.77 523.452 408.77 523.33C407.485 505.277 406.781 486.979 406.659 468.865C406.598 460.631 406.689 454.318 406.965 448.463C408.158 420.62 413.481 393.204 422.812 366.947C422.873 366.795 423.026 366.734 423.179 366.764C423.332 366.825 423.393 366.978 423.362 367.13C414.062 393.326 408.739 420.711 407.546 448.463C407.301 454.318 407.209 460.6 407.24 468.834C407.362 486.918 408.066 505.246 409.351 523.269C409.351 523.422 409.259 523.574 409.076 523.574C409.076 523.574 409.014 523.574 408.984 523.574Z" fill="#FFDAD7"/>
<path d="M571.947 371.678L586.632 338.316L599.328 341.731L594.127 379.821L571.947 371.678Z" fill="#FFCDAB"/>
<path d="M586.629 338.317C586.629 338.317 577.757 328.802 580.113 324.167C582.468 319.532 586.843 317.488 586.843 317.488C586.996 312.334 587.271 307.15 587.608 302.027C587.822 299.008 588.067 295.989 588.373 293C588.709 289.92 588.709 286.138 590.178 283.302C590.422 282.845 590.79 282.448 591.279 282.296C592.778 281.839 594.002 283.424 594.369 284.675C594.981 286.748 595.042 289.097 595.287 291.231C595.47 292.848 595.654 294.494 595.807 296.111C596.174 299.618 596.541 303.155 596.877 306.662C597 307.852 597.122 309.041 597.245 310.2L598.407 310.261C598.407 310.261 604.801 282.448 608.778 283.272C612.755 284.095 610.093 293.518 609.206 297.3C608.258 301.325 607.034 311.481 607.034 311.481C607.034 311.481 610.002 311.481 610.644 314.012C611.317 316.512 614.407 328.589 613.244 331.303C612.082 334.017 599.294 341.794 599.294 341.794L586.568 338.378L586.629 338.317Z" fill="#FFCDAB"/>
<path d="M602.324 331.88C599.907 331.392 596.97 324.592 597.032 322.792C597.093 321.054 606.76 313.4 608.687 311.875C608.81 311.783 608.993 311.814 609.085 311.936C609.177 312.058 609.146 312.241 609.024 312.332C604.619 315.778 597.613 321.694 597.582 322.823C597.521 324.378 600.305 330.904 602.447 331.362H602.477C604.251 331.697 610.554 327.824 612.817 326.299C612.94 326.208 613.123 326.238 613.215 326.36C613.307 326.482 613.276 326.665 613.154 326.757C612.817 326.97 604.772 332.338 602.385 331.911C602.385 331.911 602.355 331.911 602.324 331.911V331.88Z" fill="#3A272E"/>
<path d="M599.079 327.972C599.079 327.972 598.926 327.911 598.895 327.819C598.834 327.697 598.895 327.514 599.017 327.453L611.897 320.378C611.897 320.378 612.203 320.378 612.264 320.5C612.325 320.622 612.264 320.805 612.142 320.866L599.262 327.941C599.262 327.941 599.14 327.972 599.079 327.941V327.972Z" fill="#3A272E"/>
<path d="M586.812 317.455C586.812 317.455 599.478 312.241 601.589 313.552C603.669 314.863 603.546 318.675 601.221 320.932C598.896 323.189 585.833 330.447 585.833 330.447L586.812 317.455Z" fill="#FFCDAB"/>
<path d="M588.336 328.097C588.336 328.097 588.183 328.006 588.122 327.945C588.061 327.792 588.122 327.64 588.275 327.579C588.367 327.548 598.738 323.096 600.451 321.815C602.225 320.473 603.755 317.149 602.011 314.465C600.543 312.239 590.631 316.082 586.929 317.728C586.776 317.789 586.623 317.728 586.562 317.576C586.501 317.423 586.562 317.271 586.715 317.21C588.122 316.57 600.512 311.141 602.501 314.13C604.458 317.088 602.776 320.748 600.818 322.211C599.044 323.553 588.948 327.853 588.52 328.036C588.459 328.036 588.397 328.036 588.367 328.036L588.336 328.097Z" fill="#3A272E"/>
<path d="M599.145 331.971C599.145 331.971 598.961 331.88 598.93 331.758C597.768 327.062 594.77 325.354 594.739 325.354C594.617 325.293 594.556 325.11 594.617 324.988C594.678 324.866 594.862 324.805 594.984 324.866C595.106 324.927 598.227 326.665 599.45 331.636C599.481 331.788 599.389 331.941 599.236 331.971C599.206 331.971 599.145 331.971 599.114 331.971H599.145Z" fill="#3A272E"/>
<path d="M594.305 310.501C594.305 310.501 594.091 310.379 594.091 310.257C594.091 310.105 594.183 309.952 594.336 309.952C594.55 309.952 599.598 309.403 602.229 310.257C602.382 310.318 602.443 310.471 602.412 310.593C602.351 310.745 602.229 310.837 602.076 310.776C599.506 309.952 594.458 310.501 594.397 310.501C594.397 310.501 594.336 310.501 594.305 310.501Z" fill="#3A272E"/>
<path d="M482.801 320.235C482.801 320.235 512.078 335.574 521.806 344.54C521.806 344.54 492.805 405.624 496.047 445.604C499.29 485.615 519.206 556.853 519.206 556.853C519.206 556.853 506.143 541.117 482.403 533.005L465.057 527.089C465.057 527.089 451.688 468.964 464.231 408.917L482.77 320.235H482.801Z" fill="#5788FF"/>
<path d="M587.919 408.675C587.919 408.675 585.777 415.018 582.534 422.123C581.8 423.77 580.974 425.478 580.118 427.125C580.026 427.308 579.965 427.46 579.842 427.613C575.468 435.968 569.93 443.47 564.883 441.275C561.548 439.841 553.655 435.45 544.477 430.174C544.324 430.083 544.141 429.961 543.957 429.869C527.59 420.446 507.277 408.187 500.944 404.375C500.822 404.314 500.73 404.222 500.608 404.192C500.547 404.131 500.485 404.1 500.424 404.07C499.476 403.49 498.956 403.185 498.956 403.185C498.956 403.185 507.919 361.131 521.38 345.06C521.502 344.877 521.625 344.694 521.778 344.542L522.023 344.755L562.863 384.369L562.955 384.491L563.904 385.406L587.919 408.705V408.675Z" fill="#5788FF"/>
<path d="M553.867 402.386L569.989 370.671L597.431 381.1C597.431 381.1 588.528 412.328 583.083 421.446C577.637 430.565 553.867 402.386 553.867 402.386Z" fill="#5788FF"/>
<path d="M467.329 394.954C467.329 394.954 467.238 394.923 467.176 394.893C467.054 394.771 467.054 394.618 467.176 394.496L492.599 368.788L487.062 346.526C487.062 346.526 487.062 346.282 487.184 346.221L507.65 334.328C507.65 334.328 507.956 334.297 508.048 334.419C508.14 334.541 508.079 334.724 507.956 334.816L487.673 346.617L493.211 368.849C493.211 368.849 493.211 369.032 493.149 369.123L467.605 394.923C467.605 394.923 467.421 395.015 467.36 395.015L467.329 394.954Z" fill="#FFDAD7"/>
<path d="M500.547 405.2C500.547 405.2 500.302 405.017 500.333 404.895C501.403 397.881 507.461 380.132 507.522 379.949C507.583 379.797 507.736 379.736 507.889 379.766C508.042 379.827 508.103 379.98 508.073 380.132C508.011 380.315 501.985 398.033 500.914 404.986C500.914 405.139 500.73 405.261 500.577 405.23L500.547 405.2Z" fill="#FFDAD7"/>
<path d="M501.129 402.362C501.129 402.362 501.099 402.362 501.068 402.362C500.915 402.301 500.854 402.148 500.915 401.996C503.73 395.134 510.888 387.327 510.949 387.236C511.041 387.114 511.225 387.114 511.347 387.236C511.47 387.327 511.47 387.51 511.347 387.632C511.286 387.724 504.189 395.439 501.435 402.209C501.374 402.331 501.252 402.392 501.129 402.392V402.362Z" fill="#FFDAD7"/>
<path d="M567.551 405.935C567.551 405.935 567.307 405.783 567.337 405.661C567.766 394.347 562.963 384.68 562.901 384.588C562.84 384.436 562.901 384.283 563.024 384.222C563.146 384.161 563.33 384.222 563.391 384.344C563.452 384.436 568.316 394.225 567.888 405.691C567.888 405.844 567.766 405.966 567.582 405.966C567.582 405.966 567.551 405.966 567.521 405.966L567.551 405.935Z" fill="#FFDAD7"/>
<path d="M595.381 388.275C595.381 388.275 595.351 388.275 595.32 388.275L567.726 375.742C567.726 375.742 567.512 375.498 567.573 375.376C567.634 375.223 567.787 375.162 567.94 375.223L595.534 387.757C595.534 387.757 595.748 388.001 595.687 388.123C595.626 388.245 595.504 388.306 595.381 388.275Z" fill="#FFDAD7"/>
<path d="M594.404 383.093C594.282 383.734 593.67 384.13 593.027 383.978C592.385 383.825 591.987 383.246 592.14 382.605C592.293 381.965 592.874 381.568 593.517 381.721C594.159 381.873 594.557 382.453 594.404 383.093Z" fill="#FFDAD7"/>
<path d="M580.126 427.156C580.034 427.339 579.973 427.491 579.85 427.644C576.424 426.393 572.753 425.875 569.449 425.509C565.044 425.021 560.332 424.624 555.835 425.295C552.592 425.783 548.126 427.034 544.516 430.205C544.363 430.114 544.18 429.992 543.996 429.9C547.698 426.546 552.378 425.265 555.713 424.746C560.302 424.045 565.074 424.442 569.51 424.96C572.875 425.326 576.608 425.844 580.126 427.156Z" fill="#FFDAD7"/>
<path d="M515.721 367.572C515.568 367.541 515.477 367.358 515.538 367.236C517.679 359.795 521.534 344.639 521.565 344.486C521.595 344.334 521.779 344.273 521.901 344.273C522.054 344.303 522.146 344.456 522.115 344.608C522.085 344.761 518.199 359.948 516.058 367.389C516.027 367.541 515.874 367.633 515.721 367.602V367.572Z" fill="#FFDAD7"/>
<path d="M467.724 528.309C467.724 528.309 467.51 528.187 467.51 528.065C463.38 498.026 462.003 466.158 463.533 435.937C464.267 421.146 465.735 405.471 471.273 390.833C471.334 390.681 471.487 390.62 471.64 390.681C471.793 390.742 471.854 390.894 471.793 391.047C466.286 405.624 464.848 421.268 464.083 435.998C462.554 466.189 463.93 498.026 468.06 528.034C468.06 528.187 467.969 528.339 467.816 528.339C467.785 528.339 467.754 528.339 467.724 528.339V528.309Z" fill="#FFDAD7"/>
<path d="M477.141 407.578C476.805 409.224 475.183 410.261 473.531 409.926C471.879 409.59 470.839 407.974 471.176 406.327C471.512 404.681 473.133 403.644 474.785 403.979C476.437 404.315 477.478 405.931 477.141 407.578Z" fill="#FFDAD7"/>
<path d="M474.046 429.381C473.709 431.028 472.088 432.064 470.436 431.729C468.784 431.393 467.743 429.777 468.08 428.13C468.416 426.484 470.038 425.447 471.69 425.782C473.342 426.118 474.382 427.734 474.046 429.381Z" fill="#FFDAD7"/>
<path d="M472.922 451.889C472.586 453.536 470.964 454.573 469.312 454.237C467.66 453.902 466.62 452.285 466.957 450.639C467.293 448.992 468.915 447.955 470.567 448.29C472.219 448.626 473.259 450.242 472.922 451.889Z" fill="#FFDAD7"/>
<path d="M472.277 473.328C471.94 474.974 470.319 476.011 468.667 475.676C467.015 475.34 465.975 473.724 466.311 472.077C466.648 470.43 468.269 469.394 469.921 469.729C471.573 470.064 472.613 471.681 472.277 473.328Z" fill="#FFDAD7"/>
<path d="M474.69 495.99C475.035 494.341 473.974 492.726 472.32 492.382C470.665 492.039 469.045 493.097 468.701 494.746C468.356 496.394 469.417 498.01 471.071 498.353C472.726 498.697 474.346 497.639 474.69 495.99Z" fill="#FFDAD7"/>
<path d="M478.67 519.981C478.334 521.628 476.712 522.665 475.06 522.329C473.408 521.994 472.368 520.378 472.705 518.731C473.041 517.084 474.663 516.047 476.315 516.383C477.967 516.718 479.007 518.334 478.67 519.981Z" fill="#FFDAD7"/>
<path d="M441.759 245.64C443.808 245.793 445.583 245.762 447.112 245.762L445.613 255.552L503.77 264.304C511.571 265.493 518.882 260.126 520.045 252.319L521.36 243.719C524.94 243.719 528.121 241.218 528.886 237.589C529.345 235.363 528.794 233.198 527.57 231.521C537.024 222.128 538.553 205.111 516.863 197.64C505.819 193.828 494.286 196.084 485.598 199.195C483.793 198.768 481.988 198.372 480.152 198.036C436.619 189.802 441.759 245.671 441.759 245.671V245.64Z" fill="#3A272E"/>
<path d="M450.782 241.246L454.147 241.765L454.269 240.88C457.329 246.858 453.688 252.316 457.726 248.291C458.246 247.772 458.369 246.309 458.522 245.638C459.011 243.747 459.409 241.826 459.868 239.935C460.877 235.818 461.336 231.335 463.386 227.554C465.65 223.437 470.116 220.692 474.705 220.296C479.416 219.899 484.556 221.759 488.9 223.467C492.143 225.785 505.94 235.086 517.29 235.239C517.29 235.269 517.29 235.3 517.29 235.361L516.862 238.197L516.8 238.685L514.904 251.097L511.447 273.877L510.59 279.61C508.908 290.772 500.066 299.067 489.42 300.622L482.782 320.292C480.732 330.173 472.564 327.611 465.313 326.086L458.461 324.653C448.549 322.61 442.155 312.82 444.204 302.97L449.681 276.835C449.466 274.761 449.466 272.627 449.803 270.461L451.21 261.13L447.845 260.611C443.042 259.879 439.707 255.396 440.442 250.609L440.748 248.657C441.482 243.869 445.979 240.545 450.782 241.277V241.246Z" fill="#FFCDAB"/>
<path opacity="0.15" d="M450.685 264.667C448.604 278.33 458.027 291.077 471.732 293.151L482.929 294.828C496.635 296.902 509.422 287.509 511.502 273.847L510.646 279.58C508.963 290.741 500.122 299.036 489.476 300.592C487.793 307.972 479.503 312.515 470.845 310.716C462.187 308.917 456.283 301.323 457.874 293.821C457.935 293.516 458.027 293.242 458.119 292.937C451.939 287.509 448.543 279.153 449.859 270.431L451.266 261.099L450.715 264.698L450.685 264.667Z" fill="#813841"/>
<path d="M447.537 253.624C447.781 253.685 448.057 253.624 448.271 253.472L451.758 251.245L448.516 246.183C448.21 245.726 447.598 245.573 447.139 245.878C446.68 246.183 446.527 246.793 446.833 247.25L449.005 250.635L447.2 251.794C446.741 252.099 446.588 252.709 446.894 253.167C447.047 253.411 447.292 253.563 447.537 253.594V253.624Z" fill="#813841"/>
<path opacity="0.57" d="M487.708 287.444C487.983 287.505 488.258 287.444 488.472 287.291C488.931 286.986 489.023 286.346 488.717 285.888C486.392 282.564 482.446 283.632 482.293 283.693C481.773 283.845 481.467 284.394 481.62 284.943C481.773 285.461 482.323 285.766 482.843 285.614C482.966 285.583 485.566 284.882 487.065 287.047C487.218 287.261 487.432 287.413 487.677 287.444H487.708Z" fill="#813841"/>
<path d="M480.607 261.766C480.607 261.766 485.287 265.882 490.58 268.139C495.872 270.396 489.142 278.508 480.974 275.55C472.806 272.592 476.385 259.631 480.637 261.766H480.607Z" fill="white"/>
<path d="M472.869 234.259C473.756 232.918 476.234 231.423 479.63 231.301C480.945 231.24 482.108 231.423 483.148 231.698C485.473 232.033 487.247 233.04 488.043 234.015C489.114 235.296 488.808 236.394 487.951 236.791C487.064 237.218 485.84 237.157 484.678 237.157C483.515 237.157 482.322 237.157 481.312 237.157C480.303 237.187 479.11 237.279 477.947 237.4C476.785 237.492 475.592 237.644 474.643 237.279C474.582 237.279 474.552 237.218 474.49 237.218C474.062 237.218 473.634 237.157 473.267 237.004C472.349 236.669 471.951 235.601 472.9 234.229L472.869 234.259Z" fill="#3A272E"/>
<path d="M511.905 241.577C511.11 241.76 510.192 241.486 509.274 241.272C508.356 241.028 507.438 240.815 506.612 240.662C505.786 240.51 504.869 240.357 503.92 240.235C503.002 240.083 502.024 239.992 501.351 239.534C500.708 239.107 500.586 238.192 501.626 237.308C502.605 236.423 504.838 235.722 507.53 236.241C510.222 236.759 511.997 238.284 512.547 239.443C513.129 240.662 512.67 241.455 511.905 241.608V241.577Z" fill="#3A272E"/>
<path d="M490.189 261.673C490.71 261.794 491.23 261.855 491.719 261.916C493.891 262.16 495.91 261.459 497.165 260.056C498.144 258.958 498.48 257.617 498.174 256.214L495.543 244.595C495.421 244.046 494.87 243.71 494.35 243.832C493.799 243.954 493.463 244.473 493.585 245.022L496.216 256.641C496.43 257.586 496.033 258.287 495.666 258.714C494.87 259.629 493.463 260.056 491.933 259.904C491.016 259.812 490.006 259.599 488.935 259.263C488.415 259.08 487.834 259.385 487.681 259.934C487.528 260.453 487.803 261.032 488.354 261.185C488.996 261.368 489.608 261.551 490.189 261.673Z" fill="#813841"/>
<path d="M484.279 247.922C484.616 249.02 483.973 250.179 482.872 250.515C481.771 250.85 480.608 250.21 480.272 249.112C479.935 248.014 480.578 246.855 481.679 246.52C482.78 246.184 483.943 246.825 484.279 247.922Z" fill="#3A272E"/>
<path d="M507.379 252.225C507.716 253.322 507.073 254.481 505.972 254.817C504.87 255.152 503.708 254.512 503.371 253.414C503.035 252.316 503.677 251.157 504.779 250.822C505.88 250.486 507.043 251.127 507.379 252.225Z" fill="#3A272E"/>
<path d="M501.75 256.798C501.964 256.828 502.178 256.798 502.393 256.737C502.484 256.706 504.473 255.822 506.767 257.469C507.226 257.774 507.838 257.682 508.175 257.225C508.481 256.767 508.389 256.157 507.93 255.822C504.656 253.504 501.658 254.877 501.536 254.937C501.047 255.181 500.832 255.761 501.077 256.279C501.23 256.584 501.475 256.767 501.781 256.828L501.75 256.798Z" fill="#813841"/>
<path d="M477.216 253.076C477.431 253.106 477.645 253.076 477.859 253.015C477.951 252.984 479.939 252.1 482.234 253.747C482.692 254.052 483.304 253.96 483.641 253.503C483.947 253.045 483.855 252.435 483.396 252.1C480.123 249.752 477.125 251.154 477.002 251.215C476.513 251.459 476.299 252.039 476.543 252.557C476.696 252.862 476.941 253.045 477.247 253.106L477.216 253.076Z" fill="#813841"/>
<path d="M754.696 347.367C759.954 350.346 762.583 354.873 762.583 360.949C762.583 366.557 760.742 370.968 757.062 374.181C753.44 377.394 748.153 379 741.202 379H715.264V317.661H739.624C746.518 317.661 751.775 319.151 755.397 322.13C759.019 325.109 760.83 329.374 760.83 334.924C760.83 340.24 758.785 344.387 754.696 347.367ZM738.573 332.733H732.789V340.97L739.537 340.882C742.049 340.532 743.305 339.188 743.305 336.851C743.305 335.508 742.837 334.485 741.903 333.784C740.968 333.083 739.858 332.733 738.573 332.733ZM740.15 363.928C741.552 363.928 742.721 363.519 743.655 362.701C744.59 361.884 745.057 360.832 745.057 359.547C745.057 357.093 743.743 355.662 741.114 355.253L732.789 355.165V363.928H740.15ZM768.319 317.661H785.845V379H768.319V317.661ZM837.528 317.661V334.661H823.069V379H805.544V334.661H791.085V317.661H837.528ZM873.893 379L871.79 371.114H854.089L851.986 379H833.146L852.687 317.661H873.192L892.733 379H873.893ZM857.857 357.093H868.022L862.939 338.253L857.857 357.093ZM923.469 363.665C926.215 363.665 928.639 363.052 930.742 361.825C932.904 360.54 934.51 358.817 935.562 356.655L950.809 365.418C948.18 370.033 944.441 373.684 939.593 376.371C934.802 379.058 929.574 380.402 923.907 380.402C914.502 380.402 906.791 377.364 900.774 371.289C894.815 365.155 891.836 357.502 891.836 348.331C891.836 339.159 894.815 331.535 900.774 325.46C906.791 319.326 914.502 316.259 923.907 316.259C929.515 316.259 934.715 317.632 939.505 320.378C944.354 323.065 948.122 326.657 950.809 331.156L935.562 339.918C934.51 337.874 932.904 336.209 930.742 334.924C928.581 333.638 926.156 332.996 923.469 332.996C917.394 332.996 913.129 335.479 910.676 340.444H929.165V356.217H910.676C913.129 361.183 917.394 363.665 923.469 363.665ZM1019.18 317.661V379H1001.65V349.119L987.984 372.077H986.407L972.737 349.119V379H955.211V317.661H972.737L987.195 342.635L1001.65 317.661H1019.18ZM1081.31 371.201C1075.06 377.335 1067.38 380.402 1058.27 380.402C1049.15 380.402 1041.44 377.335 1035.13 371.201C1028.88 365.009 1025.76 357.385 1025.76 348.331C1025.76 339.276 1028.88 331.681 1035.13 325.548C1041.44 319.355 1049.15 316.259 1058.27 316.259C1067.38 316.259 1075.06 319.355 1081.31 325.548C1087.62 331.681 1090.78 339.276 1090.78 348.331C1090.78 357.385 1087.62 365.009 1081.31 371.201ZM1047.49 359.021C1050.35 361.825 1053.94 363.227 1058.27 363.227C1062.59 363.227 1066.15 361.825 1068.96 359.021C1071.82 356.159 1073.25 352.595 1073.25 348.331C1073.25 344.066 1071.82 340.532 1068.96 337.728C1066.15 334.865 1062.59 333.434 1058.27 333.434C1053.94 333.434 1050.35 334.865 1047.49 337.728C1044.69 340.532 1043.28 344.066 1043.28 348.331C1043.28 352.595 1044.69 356.159 1047.49 359.021ZM1099.54 356.217L1096.47 335.187V317.661H1116.63V335.187L1113.56 356.217H1099.54ZM1113.65 377.423C1111.72 379.351 1109.35 380.314 1106.55 380.314C1103.75 380.314 1101.35 379.351 1099.36 377.423C1097.44 375.437 1096.47 373.041 1096.47 370.237C1096.47 367.433 1097.44 365.067 1099.36 363.14C1101.35 361.153 1103.75 360.16 1106.55 360.16C1109.35 360.16 1111.72 361.153 1113.65 363.14C1115.63 365.067 1116.63 367.433 1116.63 370.237C1116.63 373.041 1115.63 375.437 1113.65 377.423Z" fill="white"/>
<path d="M867.001 425.548V442.547H852.543V486.887H835.017V442.547H820.559V425.548H867.001ZM905.54 486.887V458.846L886.262 486.887H872.241V425.548H889.767V453.588L909.045 425.548H923.065V486.887H905.54ZM949.343 467.872V452.625H984.394V467.872H949.343ZM723.389 521.548V582.887H705.863V553.006L692.193 575.964H690.616L676.946 553.006V582.887H659.421V521.548H676.946L691.405 546.522L705.863 521.548H723.389ZM785.523 575.088C779.272 581.222 771.59 584.289 762.477 584.289C753.364 584.289 745.653 581.222 739.344 575.088C733.093 568.896 729.967 561.272 729.967 552.217C729.967 543.162 733.093 535.568 739.344 529.434C745.653 523.242 753.364 520.146 762.477 520.146C771.59 520.146 779.272 523.242 785.523 529.434C791.832 535.568 794.987 543.162 794.987 552.217C794.987 561.272 791.832 568.896 785.523 575.088ZM751.699 562.908C754.561 565.712 758.154 567.114 762.477 567.114C766.8 567.114 770.363 565.712 773.168 562.908C776.03 560.045 777.461 556.482 777.461 552.217C777.461 547.953 776.03 544.418 773.168 541.614C770.363 538.752 766.8 537.321 762.477 537.321C758.154 537.321 754.561 538.752 751.699 541.614C748.895 544.418 747.493 547.953 747.493 552.217C747.493 556.482 748.895 560.045 751.699 562.908ZM794.524 582.887V566.588C797.62 566.88 799.782 566.442 801.008 565.274C802.293 564.105 802.936 561.681 802.936 558.001V521.548H847.976V582.887H830.451V538.547H820.461V560.104C820.461 564.952 819.731 569.042 818.271 572.371C816.869 575.643 814.883 578.067 812.312 579.645C809.8 581.163 807.084 582.186 804.163 582.711C801.242 583.179 798.029 583.237 794.524 582.887ZM910.118 575.088C903.867 581.222 896.185 584.289 887.072 584.289C877.958 584.289 870.247 581.222 863.938 575.088C857.687 568.896 854.562 561.272 854.562 552.217C854.562 543.162 857.687 535.568 863.938 529.434C870.247 523.242 877.958 520.146 887.072 520.146C896.185 520.146 903.867 523.242 910.118 529.434C916.427 535.568 919.581 543.162 919.581 552.217C919.581 561.272 916.427 568.896 910.118 575.088ZM876.294 562.908C879.156 565.712 882.749 567.114 887.072 567.114C891.395 567.114 894.958 565.712 897.762 562.908C900.625 560.045 902.056 556.482 902.056 552.217C902.056 547.953 900.625 544.418 897.762 541.614C894.958 538.752 891.395 537.321 887.072 537.321C882.749 537.321 879.156 538.752 876.294 541.614C873.489 544.418 872.087 547.953 872.087 552.217C872.087 556.482 873.489 560.045 876.294 562.908ZM974.323 565.887H980.896V594.629H963.37V582.887H937.082V594.629H919.557V565.887H926.041C928.495 561.447 929.721 555.255 929.721 547.31V521.548H974.323V565.887ZM944.18 565.887H956.798V537.671H947.247V547.485C947.247 555.08 946.224 561.214 944.18 565.887ZM1003.66 566.763H1026.45V582.887H986.139V521.548H1026.01V537.496H1003.66V544.156H1023.82V559.928H1003.66V566.763ZM1083.41 565.887H1090.86V594.629H1073.33V582.887H1033.46V521.548H1051.86V565.887H1065.01V521.548H1083.41V565.887ZM1120.64 538.898C1127 538.898 1132.32 540.913 1136.58 544.944C1140.85 548.917 1142.98 554.233 1142.98 560.892C1142.98 567.552 1140.85 572.897 1136.58 576.928C1132.32 580.901 1127 582.887 1120.64 582.887H1096.1V521.548H1113.63V538.898H1120.64ZM1120.64 565.887C1121.98 565.887 1123.12 565.449 1124.05 564.573C1124.99 563.638 1125.46 562.411 1125.46 560.892C1125.46 559.373 1124.99 558.176 1124.05 557.3C1123.12 556.365 1121.98 555.898 1120.64 555.898H1113.63V565.887H1120.64ZM1150.41 560.104L1147.34 539.073V521.548H1167.49V539.073L1164.43 560.104H1150.41ZM1164.51 581.309C1162.59 583.237 1160.22 584.201 1157.42 584.201C1154.61 584.201 1152.22 583.237 1150.23 581.309C1148.3 579.323 1147.34 576.928 1147.34 574.124C1147.34 571.32 1148.3 568.954 1150.23 567.026C1152.22 565.04 1154.61 564.047 1157.42 564.047C1160.22 564.047 1162.59 565.04 1164.51 567.026C1166.5 568.954 1167.49 571.32 1167.49 574.124C1167.49 576.928 1166.5 579.323 1164.51 581.309Z" fill="white"/>
</g>
<defs>
<linearGradient id="paint0_linear_1_1295" x1="1340.64" y1="255.3" x2="1302.91" y2="233.932" gradientUnits="userSpaceOnUse">
<stop stop-color="#FF9E89" stop-opacity="0"/>
<stop offset="1" stop-color="#FF7878" stop-opacity="0.5"/>
</linearGradient>
<linearGradient id="paint1_linear_1_1295" x1="1263.8" y1="246.33" x2="1284.87" y2="230.457" gradientUnits="userSpaceOnUse">
<stop stop-color="#FF9E89" stop-opacity="0"/>
<stop offset="1" stop-color="#FF7878" stop-opacity="0.5"/>
</linearGradient>
</defs>
</svg>
