<svg width="91" height="91" viewBox="0 0 91 91" fill="none" xmlns="http://www.w3.org/2000/svg">
<g filter="url(#filter0_d_2004_706)">
<path d="M45.4565 83.2856C68.3886 83.2856 86.9787 64.6955 86.9787 41.7634C86.9787 18.8313 68.3886 0.241211 45.4565 0.241211C22.5245 0.241211 3.93433 18.8313 3.93433 41.7634C3.93433 64.6955 22.5245 83.2856 45.4565 83.2856Z" fill="url(#paint0_linear_2004_706)"/>
</g>
<g style="mix-blend-mode:multiply" opacity="0.58">
<path d="M45.456 77.0138C64.9236 77.0138 80.7052 61.2322 80.7052 41.7646C80.7052 22.297 64.9236 6.51538 45.456 6.51538C25.9884 6.51538 10.2068 22.297 10.2068 41.7646C10.2068 61.2322 25.9884 77.0138 45.456 77.0138Z" fill="url(#paint1_linear_2004_706)"/>
</g>
<path d="M45.4549 74.581C63.5799 74.581 78.2731 59.8878 78.2731 41.7628C78.2731 23.6378 63.5799 8.94458 45.4549 8.94458C27.3299 8.94458 12.6367 23.6378 12.6367 41.7628C12.6367 59.8878 27.3299 74.581 45.4549 74.581Z" fill="white"/>
<path d="M29.3543 57.5149V31.4789H23.0183L25.6781 26.1593H35.7335V57.5149H29.3543ZM70.7221 41.9236C70.7221 44.5185 70.4698 46.818 69.9652 48.8218C69.4607 50.8113 68.6822 52.5413 67.6298 54.0117C65.5682 56.9094 62.7066 58.3583 59.0448 58.3583C55.3687 58.3583 52.4998 56.9166 50.4382 54.0334C48.3767 51.1501 47.3459 47.1135 47.3459 41.9236C47.3459 36.7914 48.3767 32.7764 50.4382 29.8787C52.5142 26.981 55.3831 25.5322 59.0448 25.5322C62.7354 25.5322 65.6043 26.9666 67.6514 29.8355C69.6985 32.7043 70.7221 36.7337 70.7221 41.9236ZM53.8982 41.9668C53.8982 45.3691 54.3307 47.9785 55.1957 49.7949C56.0751 51.6114 57.3437 52.5196 59.0016 52.5196C60.6883 52.5196 61.9641 51.6186 62.8291 49.8166C63.6941 48.0145 64.1266 45.3691 64.1266 41.8803C64.1266 38.4492 63.6941 35.8399 62.8291 34.0522C61.9641 32.2502 60.7027 31.3492 59.0448 31.3492C57.3869 31.3492 56.1111 32.2646 55.2173 34.0955C54.3379 35.9264 53.8982 38.5502 53.8982 41.9668Z" fill="#9C50E6"/>
<defs>
<filter id="filter0_d_2004_706" x="0.325626" y="0.241201" width="90.2618" height="90.2618" filterUnits="userSpaceOnUse" color-interpolation-filters="sRGB">
<feFlood flood-opacity="0" result="BackgroundImageFix"/>
<feColorMatrix in="SourceAlpha" type="matrix" values="0 0 0 0 0 0 0 0 0 0 0 0 0 0 0 0 0 0 127 0" result="hardAlpha"/>
<feOffset dy="3.60869"/>
<feGaussianBlur stdDeviation="1.80435"/>
<feColorMatrix type="matrix" values="0 0 0 0 0 0 0 0 0 0 0 0 0 0 0 0 0 0 0.1 0"/>
<feBlend mode="normal" in2="BackgroundImageFix" result="effect1_dropShadow_2004_706"/>
<feBlend mode="normal" in="SourceGraphic" in2="effect1_dropShadow_2004_706" result="shape"/>
</filter>
<linearGradient id="paint0_linear_2004_706" x1="-12.06" y1="-7.99922" x2="99.0547" y2="86.1189" gradientUnits="userSpaceOnUse">
<stop stop-color="#DA48FF"/>
<stop offset="1" stop-color="#8751F8"/>
</linearGradient>
<linearGradient id="paint1_linear_2004_706" x1="-3.37119" y1="-0.480141" x2="90.9568" y2="79.419" gradientUnits="userSpaceOnUse">
<stop stop-color="#B92FDC"/>
<stop offset="1" stop-color="#551EC9"/>
</linearGradient>
</defs>
</svg>
