<svg width="92" height="91" viewBox="0 0 92 91" fill="none" xmlns="http://www.w3.org/2000/svg">
<g filter="url(#filter0_d_2004_730)">
<path d="M45.9292 83.4831C68.8613 83.4831 87.4514 64.893 87.4514 41.9609C87.4514 19.0288 68.8613 0.438721 45.9292 0.438721C22.9971 0.438721 4.40698 19.0288 4.40698 41.9609C4.40698 64.893 22.9971 83.4831 45.9292 83.4831Z" fill="url(#paint0_linear_2004_730)"/>
</g>
<g style="mix-blend-mode:multiply" opacity="0.58">
<path d="M45.9286 77.2113C65.3962 77.2113 81.1778 61.4297 81.1778 41.9621C81.1778 22.4945 65.3962 6.71289 45.9286 6.71289C26.461 6.71289 10.6794 22.4945 10.6794 41.9621C10.6794 61.4297 26.461 77.2113 45.9286 77.2113Z" fill="url(#paint1_linear_2004_730)"/>
</g>
<path d="M45.9276 74.7785C64.0526 74.7785 78.7458 60.0853 78.7458 41.9603C78.7458 23.8353 64.0526 9.14209 45.9276 9.14209C27.8026 9.14209 13.1094 23.8353 13.1094 41.9603C13.1094 60.0853 27.8026 74.7785 45.9276 74.7785Z" fill="white"/>
<path d="M29.8267 57.7123V31.6763H23.4907L26.1506 26.3566H36.206V57.7123H29.8267ZM48.2076 49.3436H54.4571V49.4301C54.4571 50.569 54.8896 51.4988 55.7546 52.2196C56.6196 52.926 57.7369 53.2792 59.1064 53.2792C60.7211 53.2792 61.9609 52.8828 62.8258 52.0899C63.6908 51.297 64.1233 50.1725 64.1233 48.7165C64.1233 47.1883 63.6692 46.0278 62.761 45.2349C61.8527 44.4276 60.5336 44.0239 58.8037 44.0239L58.3928 44.0455L57.9603 44.0672V38.5313L58.3496 38.5529L58.7172 38.5745C60.2886 38.5745 61.4635 38.243 62.242 37.5798C63.0205 36.9166 63.4097 35.9219 63.4097 34.5956C63.4097 33.4567 63.0565 32.5485 62.3501 31.8709C61.6437 31.1789 60.6994 30.8329 59.5173 30.8329C58.2919 30.8329 57.326 31.1141 56.6196 31.6763C55.9132 32.2385 55.4879 33.0458 55.3437 34.0982H49.3321C49.3321 32.8008 49.5844 31.633 50.089 30.5951C50.5935 29.5571 51.2999 28.6705 52.2082 27.9352C53.1308 27.1856 54.2048 26.6306 55.4302 26.2701C56.6556 25.9097 58.0901 25.7295 59.7335 25.7295C62.7898 25.7295 65.219 26.4864 67.021 28.0001C68.8375 29.5138 69.7457 31.561 69.7457 34.1415C69.7457 35.958 69.2628 37.4933 68.2969 38.7475C67.3454 39.9873 66.0551 40.7586 64.4261 41.0614C66.2714 41.4506 67.7418 42.3805 68.8375 43.8509C69.9475 45.3214 70.5026 47.0946 70.5026 49.1706C70.5026 52.0827 69.4718 54.3749 67.4103 56.0472C65.3487 57.7195 62.5375 58.5556 58.9767 58.5556C55.7474 58.5556 53.1452 57.7339 51.1702 56.0904C49.1952 54.4326 48.2076 52.2701 48.2076 49.6031V49.3436Z" fill="#9C50E6"/>
<defs>
<filter id="filter0_d_2004_730" x="0.798282" y="0.438711" width="90.2618" height="90.2618" filterUnits="userSpaceOnUse" color-interpolation-filters="sRGB">
<feFlood flood-opacity="0" result="BackgroundImageFix"/>
<feColorMatrix in="SourceAlpha" type="matrix" values="0 0 0 0 0 0 0 0 0 0 0 0 0 0 0 0 0 0 127 0" result="hardAlpha"/>
<feOffset dy="3.60869"/>
<feGaussianBlur stdDeviation="1.80435"/>
<feColorMatrix type="matrix" values="0 0 0 0 0 0 0 0 0 0 0 0 0 0 0 0 0 0 0.1 0"/>
<feBlend mode="normal" in2="BackgroundImageFix" result="effect1_dropShadow_2004_730"/>
<feBlend mode="normal" in="SourceGraphic" in2="effect1_dropShadow_2004_730" result="shape"/>
</filter>
<linearGradient id="paint0_linear_2004_730" x1="-11.5873" y1="-7.80174" x2="99.5274" y2="86.3164" gradientUnits="userSpaceOnUse">
<stop stop-color="#DA48FF"/>
<stop offset="1" stop-color="#8751F8"/>
</linearGradient>
<linearGradient id="paint1_linear_2004_730" x1="-2.89848" y1="-0.282666" x2="91.4295" y2="79.6165" gradientUnits="userSpaceOnUse">
<stop stop-color="#B92FDC"/>
<stop offset="1" stop-color="#551EC9"/>
</linearGradient>
</defs>
</svg>
