<svg width="91" height="92" viewBox="0 0 91 92" fill="none" xmlns="http://www.w3.org/2000/svg">
<g filter="url(#filter0_d_2004_738)">
<path d="M45.4956 83.7973C68.4277 83.7973 87.0178 65.2072 87.0178 42.2751C87.0178 19.3431 68.4277 0.75293 45.4956 0.75293C22.5635 0.75293 3.97339 19.3431 3.97339 42.2751C3.97339 65.2072 22.5635 83.7973 45.4956 83.7973Z" fill="url(#paint0_linear_2004_738)"/>
</g>
<g style="mix-blend-mode:multiply" opacity="0.58">
<path d="M45.495 77.5255C64.9626 77.5255 80.7442 61.7439 80.7442 42.2763C80.7442 22.8087 64.9626 7.0271 45.495 7.0271C26.0275 7.0271 10.2458 22.8087 10.2458 42.2763C10.2458 61.7439 26.0275 77.5255 45.495 77.5255Z" fill="url(#paint1_linear_2004_738)"/>
</g>
<path d="M45.494 75.0927C63.619 75.0927 78.3122 60.3995 78.3122 42.2745C78.3122 24.1495 63.619 9.4563 45.494 9.4563C27.369 9.4563 12.6758 24.1495 12.6758 42.2745C12.6758 60.3995 27.369 75.0927 45.494 75.0927Z" fill="white"/>
<path d="M29.3931 58.0266V31.9906H23.0571L25.717 26.671H35.7724V58.0266H29.3931ZM61.7435 58.0266V51.9501H46.4982V49.0308L61.7435 26.0439H67.5389V47.4522H70.8691V51.9501H67.5389V58.0266H61.7435ZM61.83 47.4522V36.5534C61.83 36.193 61.83 35.811 61.83 35.4073C61.8444 35.0037 61.8588 34.5784 61.8733 34.1315C61.8733 33.8864 61.8805 33.6918 61.8949 33.5476C61.9093 33.4034 61.9598 33.0935 62.0463 32.6178C61.7868 33.353 61.4696 34.081 61.0948 34.8018C60.7344 35.5227 60.3163 36.2507 59.8406 36.9859L53.0072 47.4522H61.83Z" fill="#9C50E6"/>
<defs>
<filter id="filter0_d_2004_738" x="0.364689" y="0.75292" width="90.2618" height="90.2618" filterUnits="userSpaceOnUse" color-interpolation-filters="sRGB">
<feFlood flood-opacity="0" result="BackgroundImageFix"/>
<feColorMatrix in="SourceAlpha" type="matrix" values="0 0 0 0 0 0 0 0 0 0 0 0 0 0 0 0 0 0 127 0" result="hardAlpha"/>
<feOffset dy="3.60869"/>
<feGaussianBlur stdDeviation="1.80435"/>
<feColorMatrix type="matrix" values="0 0 0 0 0 0 0 0 0 0 0 0 0 0 0 0 0 0 0.1 0"/>
<feBlend mode="normal" in2="BackgroundImageFix" result="effect1_dropShadow_2004_738"/>
<feBlend mode="normal" in="SourceGraphic" in2="effect1_dropShadow_2004_738" result="shape"/>
</filter>
<linearGradient id="paint0_linear_2004_738" x1="-12.0209" y1="-7.48748" x2="99.0938" y2="86.6306" gradientUnits="userSpaceOnUse">
<stop stop-color="#DA48FF"/>
<stop offset="1" stop-color="#8751F8"/>
</linearGradient>
<linearGradient id="paint1_linear_2004_738" x1="-3.33207" y1="0.0315962" x2="90.9959" y2="79.9308" gradientUnits="userSpaceOnUse">
<stop stop-color="#B92FDC"/>
<stop offset="1" stop-color="#551EC9"/>
</linearGradient>
</defs>
</svg>
