<svg width="92" height="91" viewBox="0 0 92 91" fill="none" xmlns="http://www.w3.org/2000/svg">
<g filter="url(#filter0_d_2004_648)">
<path d="M45.8862 83.6218C68.8183 83.6218 87.4084 65.0317 87.4084 42.0996C87.4084 19.1675 68.8183 0.577393 45.8862 0.577393C22.9541 0.577393 4.36401 19.1675 4.36401 42.0996C4.36401 65.0317 22.9541 83.6218 45.8862 83.6218Z" fill="url(#paint0_linear_2004_648)"/>
</g>
<g style="mix-blend-mode:multiply" opacity="0.58">
<path d="M45.8857 77.3497C65.3533 77.3497 81.1349 61.5681 81.1349 42.1005C81.1349 22.6329 65.3533 6.85132 45.8857 6.85132C26.4181 6.85132 10.6365 22.6329 10.6365 42.1005C10.6365 61.5681 26.4181 77.3497 45.8857 77.3497Z" fill="url(#paint1_linear_2004_648)"/>
</g>
<path d="M45.8846 74.9172C64.0096 74.9172 78.7028 60.224 78.7028 42.099C78.7028 23.974 64.0096 9.28076 45.8846 9.28076C27.7596 9.28076 13.0664 23.974 13.0664 42.099C13.0664 60.224 27.7596 74.9172 45.8846 74.9172Z" fill="white"/>
<path d="M34.3384 49.4822H40.588V49.5687C40.588 50.7076 41.0204 51.6375 41.8854 52.3583C42.7504 53.0647 43.8677 53.4179 45.2372 53.4179C46.8519 53.4179 48.0917 53.0214 48.9567 52.2285C49.8216 51.4356 50.2541 50.3112 50.2541 48.8551C50.2541 47.327 49.8 46.1665 48.8918 45.3735C47.9836 44.5662 46.6645 44.1626 44.9345 44.1626L44.5236 44.1842L44.0911 44.2058V38.6699L44.4804 38.6916L44.848 38.7132C46.4194 38.7132 47.5943 38.3816 48.3728 37.7184C49.1513 37.0553 49.5405 36.0606 49.5405 34.7343C49.5405 33.5954 49.1873 32.6871 48.4809 32.0096C47.7745 31.3176 46.8302 30.9716 45.6481 30.9716C44.4227 30.9716 43.4568 31.2527 42.7504 31.8149C42.044 32.3772 41.6187 33.1845 41.4746 34.2369H35.4629C35.4629 32.9394 35.7152 31.7717 36.2198 30.7337C36.7244 29.6957 37.4308 28.8091 38.339 28.0739C39.2616 27.3242 40.3357 26.7692 41.5611 26.4088C42.7864 26.0484 44.2209 25.8682 45.8643 25.8682C48.9206 25.8682 51.3498 26.625 53.1518 28.1388C54.9683 29.6525 55.8765 31.6996 55.8765 34.2801C55.8765 36.0966 55.3936 37.632 54.4277 38.8862C53.4762 40.126 52.1859 40.8973 50.5569 41.2C52.4022 41.5892 53.8726 42.5191 54.9683 43.9896C56.0784 45.46 56.6334 47.2333 56.6334 49.3092C56.6334 52.2213 55.6026 54.5135 53.5411 56.1858C51.4795 57.8581 48.6683 58.6943 45.1075 58.6943C41.8782 58.6943 39.2761 57.8726 37.301 56.2291C35.326 54.5712 34.3384 52.4087 34.3384 49.7417V49.4822Z" fill="#57B12D"/>
<defs>
<filter id="filter0_d_2004_648" x="0.755314" y="0.577383" width="90.2618" height="90.2618" filterUnits="userSpaceOnUse" color-interpolation-filters="sRGB">
<feFlood flood-opacity="0" result="BackgroundImageFix"/>
<feColorMatrix in="SourceAlpha" type="matrix" values="0 0 0 0 0 0 0 0 0 0 0 0 0 0 0 0 0 0 127 0" result="hardAlpha"/>
<feOffset dy="3.60869"/>
<feGaussianBlur stdDeviation="1.80435"/>
<feColorMatrix type="matrix" values="0 0 0 0 0 0 0 0 0 0 0 0 0 0 0 0 0 0 0.1 0"/>
<feBlend mode="normal" in2="BackgroundImageFix" result="effect1_dropShadow_2004_648"/>
<feBlend mode="normal" in="SourceGraphic" in2="effect1_dropShadow_2004_648" result="shape"/>
</filter>
<linearGradient id="paint0_linear_2004_648" x1="-11.6303" y1="-7.66308" x2="99.4844" y2="86.4551" gradientUnits="userSpaceOnUse">
<stop stop-color="#97CF00"/>
<stop offset="1" stop-color="#24B400"/>
</linearGradient>
<linearGradient id="paint1_linear_2004_648" x1="-2.94152" y1="-0.14419" x2="91.3865" y2="79.755" gradientUnits="userSpaceOnUse">
<stop stop-color="#97CF00"/>
<stop offset="1" stop-color="#24B400"/>
</linearGradient>
</defs>
</svg>
