<svg width="91" height="92" viewBox="0 0 91 92" fill="none" xmlns="http://www.w3.org/2000/svg">
<g filter="url(#filter0_d_2007_758)">
<path d="M45.8784 83.9714C68.8105 83.9714 87.4006 65.3813 87.4006 42.4492C87.4006 19.5171 68.8105 0.927002 45.8784 0.927002C22.9463 0.927002 4.3562 19.5171 4.3562 42.4492C4.3562 65.3813 22.9463 83.9714 45.8784 83.9714Z" fill="url(#paint0_linear_2007_758)"/>
</g>
<g style="mix-blend-mode:multiply" opacity="0.58">
<path d="M45.8779 77.6993C65.3455 77.6993 81.1271 61.9177 81.1271 42.4501C81.1271 22.9825 65.3455 7.20093 45.8779 7.20093C26.4103 7.20093 10.6287 22.9825 10.6287 42.4501C10.6287 61.9177 26.4103 77.6993 45.8779 77.6993Z" fill="url(#paint1_linear_2007_758)"/>
</g>
<path d="M45.8768 75.2668C64.0018 75.2668 78.695 60.5736 78.695 42.4486C78.695 24.3236 64.0018 9.63037 45.8768 9.63037C27.7518 9.63037 13.0586 24.3236 13.0586 42.4486C13.0586 60.5736 27.7518 75.2668 45.8768 75.2668Z" fill="white"/>
<path d="M35.4118 51.3453C36.8678 52.3256 38.1365 52.996 39.2177 53.3564C40.2989 53.7168 41.4666 53.897 42.7209 53.897C44.8112 53.897 46.4547 53.3852 47.6513 52.3617C48.8478 51.3237 49.4461 49.9181 49.4461 48.1449C49.4461 46.3284 48.8623 44.9156 47.6945 43.9065C46.5268 42.8973 44.8545 42.3928 42.6776 42.3928C41.5099 42.3928 40.4431 42.5513 39.4772 42.8685C38.5113 43.1712 37.6103 43.6326 36.7741 44.2525L35.282 43.3226L39.2177 26.8447H55.5442V32.1643H43.3264L41.791 38.5868C42.137 38.4859 42.4542 38.3994 42.7425 38.3273C43.0452 38.2552 43.3984 38.1832 43.8021 38.1111C44.2058 38.039 44.559 37.9885 44.8617 37.9597C45.1789 37.9309 45.5393 37.9165 45.9429 37.9165C48.9271 37.9165 51.3635 38.8535 53.252 40.7277C55.1406 42.5874 56.0849 45.0021 56.0849 47.9719C56.0849 51.3597 54.9315 54.0556 52.6249 56.0595C50.3327 58.0489 47.1755 59.0437 43.1534 59.0437C41.3513 59.0437 39.7151 58.8346 38.2446 58.4166C36.7741 57.9985 35.3685 57.3498 34.0278 56.4704L35.4118 51.3453Z" fill="#57B12D"/>
<defs>
<filter id="filter0_d_2007_758" x="0.747501" y="0.926992" width="90.2618" height="90.2618" filterUnits="userSpaceOnUse" color-interpolation-filters="sRGB">
<feFlood flood-opacity="0" result="BackgroundImageFix"/>
<feColorMatrix in="SourceAlpha" type="matrix" values="0 0 0 0 0 0 0 0 0 0 0 0 0 0 0 0 0 0 127 0" result="hardAlpha"/>
<feOffset dy="3.60869"/>
<feGaussianBlur stdDeviation="1.80435"/>
<feColorMatrix type="matrix" values="0 0 0 0 0 0 0 0 0 0 0 0 0 0 0 0 0 0 0.1 0"/>
<feBlend mode="normal" in2="BackgroundImageFix" result="effect1_dropShadow_2007_758"/>
<feBlend mode="normal" in="SourceGraphic" in2="effect1_dropShadow_2007_758" result="shape"/>
</filter>
<linearGradient id="paint0_linear_2007_758" x1="-11.6381" y1="-7.31348" x2="99.4766" y2="86.8047" gradientUnits="userSpaceOnUse">
<stop stop-color="#97CF00"/>
<stop offset="1" stop-color="#24B400"/>
</linearGradient>
<linearGradient id="paint1_linear_2007_758" x1="-2.94934" y1="0.205453" x2="91.3787" y2="80.1046" gradientUnits="userSpaceOnUse">
<stop stop-color="#97CF00"/>
<stop offset="1" stop-color="#24B400"/>
</linearGradient>
</defs>
</svg>
