<svg width="91" height="92" viewBox="0 0 91 92" fill="none" xmlns="http://www.w3.org/2000/svg">
<g filter="url(#filter0_d_2004_674)">
<path d="M45.4409 83.7956C68.373 83.7956 86.9631 65.2055 86.9631 42.2734C86.9631 19.3413 68.373 0.751221 45.4409 0.751221C22.5088 0.751221 3.9187 19.3413 3.9187 42.2734C3.9187 65.2055 22.5088 83.7956 45.4409 83.7956Z" fill="url(#paint0_linear_2004_674)"/>
</g>
<g style="mix-blend-mode:multiply" opacity="0.58">
<path d="M45.4404 77.5238C64.908 77.5238 80.6896 61.7422 80.6896 42.2746C80.6896 22.807 64.908 7.02539 45.4404 7.02539C25.9728 7.02539 10.1912 22.807 10.1912 42.2746C10.1912 61.7422 25.9728 77.5238 45.4404 77.5238Z" fill="url(#paint1_linear_2004_674)"/>
</g>
<path d="M45.4393 75.091C63.5643 75.091 78.2575 60.3978 78.2575 42.2728C78.2575 24.1478 63.5643 9.45459 45.4393 9.45459C27.3143 9.45459 12.6211 24.1478 12.6211 42.2728C12.6211 60.3978 27.3143 75.091 45.4393 75.091Z" fill="white"/>
<path d="M40.3156 48.2719C40.3156 49.8 40.7481 51.0182 41.6131 51.9264C42.4925 52.8347 43.6891 53.2888 45.2028 53.2888C46.63 53.2888 47.7833 52.8275 48.6627 51.9048C49.5421 50.9822 49.9818 49.7712 49.9818 48.2719C49.9818 46.6861 49.5421 45.4463 48.6627 44.5524C47.7977 43.6442 46.5868 43.1901 45.0298 43.1901C43.6602 43.1901 42.5285 43.673 41.6347 44.6389C40.7553 45.5904 40.3156 46.8014 40.3156 48.2719ZM42.9755 39.1247C43.5377 38.8364 44.1432 38.6129 44.7919 38.4543C45.4695 38.3102 46.2264 38.2381 47.0625 38.2381C49.7439 38.2381 51.9497 39.1535 53.6796 40.9844C55.4096 42.8009 56.2746 45.1435 56.2746 48.0124C56.2746 51.2561 55.2294 53.8798 53.139 55.8837C51.0486 57.8732 48.2807 58.8679 44.8352 58.8679C41.6347 58.8679 39.0542 57.8732 37.0936 55.8837C35.1474 53.8798 34.1743 51.2416 34.1743 47.9691C34.1743 46.0518 34.6067 43.983 35.4717 41.7629C36.3367 39.5283 37.6558 37.0487 39.429 34.324L44.4459 26.6689H52.0145L42.9755 39.1247Z" fill="#57B12D"/>
<defs>
<filter id="filter0_d_2004_674" x="0.310001" y="0.751211" width="90.2618" height="90.2618" filterUnits="userSpaceOnUse" color-interpolation-filters="sRGB">
<feFlood flood-opacity="0" result="BackgroundImageFix"/>
<feColorMatrix in="SourceAlpha" type="matrix" values="0 0 0 0 0 0 0 0 0 0 0 0 0 0 0 0 0 0 127 0" result="hardAlpha"/>
<feOffset dy="3.60869"/>
<feGaussianBlur stdDeviation="1.80435"/>
<feColorMatrix type="matrix" values="0 0 0 0 0 0 0 0 0 0 0 0 0 0 0 0 0 0 0.1 0"/>
<feBlend mode="normal" in2="BackgroundImageFix" result="effect1_dropShadow_2004_674"/>
<feBlend mode="normal" in="SourceGraphic" in2="effect1_dropShadow_2004_674" result="shape"/>
</filter>
<linearGradient id="paint0_linear_2004_674" x1="-12.0756" y1="-7.48924" x2="99.0391" y2="86.6289" gradientUnits="userSpaceOnUse">
<stop stop-color="#97CF00"/>
<stop offset="1" stop-color="#24B400"/>
</linearGradient>
<linearGradient id="paint1_linear_2004_674" x1="-3.38684" y1="0.029832" x2="90.9412" y2="79.929" gradientUnits="userSpaceOnUse">
<stop stop-color="#97CF00"/>
<stop offset="1" stop-color="#24B400"/>
</linearGradient>
</defs>
</svg>
