<svg width="92" height="91" viewBox="0 0 92 91" fill="none" xmlns="http://www.w3.org/2000/svg">
<g filter="url(#filter0_d_2004_690)">
<path d="M46.0581 83.3835C68.9902 83.3835 87.5803 64.7934 87.5803 41.8613C87.5803 18.9292 68.9902 0.339111 46.0581 0.339111C23.126 0.339111 4.53589 18.9292 4.53589 41.8613C4.53589 64.7934 23.126 83.3835 46.0581 83.3835Z" fill="url(#paint0_linear_2004_690)"/>
</g>
<g style="mix-blend-mode:multiply" opacity="0.58">
<path d="M46.0575 77.1117C65.5251 77.1117 81.3067 61.3301 81.3067 41.8625C81.3067 22.3949 65.5251 6.61328 46.0575 6.61328C26.59 6.61328 10.8083 22.3949 10.8083 41.8625C10.8083 61.3301 26.59 77.1117 46.0575 77.1117Z" fill="url(#paint1_linear_2004_690)"/>
</g>
<path d="M46.0565 74.6789C64.1815 74.6789 78.8747 59.9857 78.8747 41.8607C78.8747 23.7357 64.1815 9.04248 46.0565 9.04248C27.9315 9.04248 13.2383 23.7357 13.2383 41.8607C13.2383 59.9857 27.9315 74.6789 46.0565 74.6789Z" fill="white"/>
<path d="M51.0745 40.8752C52.8622 41.4086 54.275 42.4178 55.313 43.9027C56.3654 45.3731 56.8916 47.1103 56.8916 49.1142C56.8916 52.0119 55.8968 54.2969 53.9074 55.9692C51.9323 57.6271 49.1932 58.456 45.69 58.456C42.2157 58.456 39.4694 57.6343 37.4511 55.9908C35.4328 54.3329 34.4236 52.084 34.4236 49.2439C34.4236 47.1968 34.9426 45.4308 35.9806 43.9459C37.0186 42.461 38.453 41.4375 40.2839 40.8752C38.6837 40.1977 37.5015 39.3038 36.7375 38.1938C35.9734 37.0837 35.5914 35.6997 35.5914 34.0419C35.5914 31.5622 36.514 29.5439 38.3593 27.987C40.2046 26.4156 42.6482 25.6299 45.69 25.6299C48.7607 25.6299 51.2115 26.4156 53.0424 27.987C54.8733 29.5584 55.7887 31.6559 55.7887 34.2797C55.7887 35.8511 55.385 37.199 54.5777 38.3235C53.7848 39.4336 52.6171 40.2842 51.0745 40.8752ZM45.7333 30.7765C44.5079 30.7765 43.5348 31.1081 42.814 31.7713C42.0931 32.42 41.7327 33.2994 41.7327 34.4095C41.7327 35.5195 42.0787 36.4134 42.7707 37.0909C43.4627 37.7541 44.4214 38.0857 45.6468 38.0857C46.901 38.0857 47.8741 37.7613 48.5661 37.1126C49.2725 36.4638 49.6257 35.5772 49.6257 34.4527C49.6257 33.3282 49.2725 32.4344 48.5661 31.7713C47.8597 31.1081 46.9154 30.7765 45.7333 30.7765ZM45.69 53.1364C47.1749 53.1364 48.3499 52.7255 49.2148 51.9038C50.0798 51.082 50.5123 49.9431 50.5123 48.4871C50.5123 47.0022 50.0798 45.8489 49.2148 45.0271C48.3643 44.2054 47.1893 43.7945 45.69 43.7945C44.1763 43.7945 42.9797 44.2198 42.1003 45.0704C41.2354 45.921 40.8029 47.0599 40.8029 48.4871C40.8029 49.8999 41.2354 51.0316 42.1003 51.8821C42.9797 52.7183 44.1763 53.1364 45.69 53.1364Z" fill="#57B12D"/>
<defs>
<filter id="filter0_d_2004_690" x="0.927189" y="0.339101" width="90.2618" height="90.2618" filterUnits="userSpaceOnUse" color-interpolation-filters="sRGB">
<feFlood flood-opacity="0" result="BackgroundImageFix"/>
<feColorMatrix in="SourceAlpha" type="matrix" values="0 0 0 0 0 0 0 0 0 0 0 0 0 0 0 0 0 0 127 0" result="hardAlpha"/>
<feOffset dy="3.60869"/>
<feGaussianBlur stdDeviation="1.80435"/>
<feColorMatrix type="matrix" values="0 0 0 0 0 0 0 0 0 0 0 0 0 0 0 0 0 0 0.1 0"/>
<feBlend mode="normal" in2="BackgroundImageFix" result="effect1_dropShadow_2004_690"/>
<feBlend mode="normal" in="SourceGraphic" in2="effect1_dropShadow_2004_690" result="shape"/>
</filter>
<linearGradient id="paint0_linear_2004_690" x1="-11.4584" y1="-7.90136" x2="99.6563" y2="86.2168" gradientUnits="userSpaceOnUse">
<stop stop-color="#97CF00"/>
<stop offset="1" stop-color="#24B400"/>
</linearGradient>
<linearGradient id="paint1_linear_2004_690" x1="-2.76957" y1="-0.382286" x2="91.5585" y2="79.5169" gradientUnits="userSpaceOnUse">
<stop stop-color="#97CF00"/>
<stop offset="1" stop-color="#24B400"/>
</linearGradient>
</defs>
</svg>
