<svg width="91" height="91" viewBox="0 0 91 91" fill="none" xmlns="http://www.w3.org/2000/svg">
<g filter="url(#filter0_d_2004_698)">
<path d="M45.1987 83.2055C68.1308 83.2055 86.7209 64.6154 86.7209 41.6833C86.7209 18.7513 68.1308 0.161133 45.1987 0.161133C22.2666 0.161133 3.67651 18.7513 3.67651 41.6833C3.67651 64.6154 22.2666 83.2055 45.1987 83.2055Z" fill="url(#paint0_linear_2004_698)"/>
</g>
<g style="mix-blend-mode:multiply" opacity="0.58">
<path d="M45.1982 76.9337C64.6658 76.9337 80.4474 61.1521 80.4474 41.6845C80.4474 22.2169 64.6658 6.4353 45.1982 6.4353C25.7306 6.4353 9.94897 22.2169 9.94897 41.6845C9.94897 61.1521 25.7306 76.9337 45.1982 76.9337Z" fill="url(#paint1_linear_2004_698)"/>
</g>
<path d="M45.1971 74.5009C63.3221 74.5009 78.0153 59.8077 78.0153 41.6827C78.0153 23.5577 63.3221 8.8645 45.1971 8.8645C27.0721 8.8645 12.3789 23.5577 12.3789 41.6827C12.3789 59.8077 27.0721 74.5009 45.1971 74.5009Z" fill="white"/>
<path d="M49.8692 36.0049C49.8692 34.4767 49.4367 33.2585 48.5717 32.3503C47.7067 31.4421 46.5318 30.988 45.0469 30.988C43.6053 30.988 42.4375 31.4565 41.5437 32.3936C40.6643 33.3162 40.2246 34.52 40.2246 36.0049C40.2246 37.5618 40.6571 38.8016 41.5221 39.7243C42.3871 40.6325 43.6053 41.0866 45.1766 41.0866C46.575 41.0866 47.7067 40.6109 48.5717 39.6594C49.4367 38.7079 49.8692 37.4897 49.8692 36.0049ZM47.2094 45.1737C46.6039 45.4764 45.9768 45.7143 45.328 45.8873C45.0397 45.945 44.7009 45.9954 44.3117 46.0387C43.9368 46.0819 43.5476 46.1035 43.1439 46.1035C40.4625 46.1035 38.2568 45.1881 36.5268 43.3572C35.6907 42.449 35.0563 41.411 34.6239 40.2433C34.1914 39.0611 33.9751 37.7492 33.9751 36.3076C33.9751 33.0783 35.0131 30.4618 37.0891 28.4579C39.165 26.454 41.9185 25.4521 45.3496 25.4521C48.6077 25.4521 51.2099 26.4468 53.1561 28.4363C55.1023 30.4113 56.0754 33.0207 56.0754 36.2644C56.0754 38.2106 55.6285 40.3226 54.7347 42.6004C53.8553 44.8637 52.529 47.3145 50.7558 49.9527L45.7605 57.4348H38.1703L47.2094 45.1737Z" fill="#57B12D"/>
<defs>
<filter id="filter0_d_2004_698" x="0.0678136" y="0.161123" width="90.2618" height="90.2618" filterUnits="userSpaceOnUse" color-interpolation-filters="sRGB">
<feFlood flood-opacity="0" result="BackgroundImageFix"/>
<feColorMatrix in="SourceAlpha" type="matrix" values="0 0 0 0 0 0 0 0 0 0 0 0 0 0 0 0 0 0 127 0" result="hardAlpha"/>
<feOffset dy="3.60869"/>
<feGaussianBlur stdDeviation="1.80435"/>
<feColorMatrix type="matrix" values="0 0 0 0 0 0 0 0 0 0 0 0 0 0 0 0 0 0 0.1 0"/>
<feBlend mode="normal" in2="BackgroundImageFix" result="effect1_dropShadow_2004_698"/>
<feBlend mode="normal" in="SourceGraphic" in2="effect1_dropShadow_2004_698" result="shape"/>
</filter>
<linearGradient id="paint0_linear_2004_698" x1="-12.3178" y1="-8.07927" x2="98.7969" y2="86.0388" gradientUnits="userSpaceOnUse">
<stop stop-color="#97CF00"/>
<stop offset="1" stop-color="#24B400"/>
</linearGradient>
<linearGradient id="paint1_linear_2004_698" x1="-3.62902" y1="-0.560199" x2="90.699" y2="79.339" gradientUnits="userSpaceOnUse">
<stop stop-color="#97CF00"/>
<stop offset="1" stop-color="#24B400"/>
</linearGradient>
</defs>
</svg>
